<svg width="1099" height="235" viewBox="0 0 1099 235" fill="none" xmlns="http://www.w3.org/2000/svg">
<g filter="url(#filter0_d_370_801)">
<rect x="1" width="417" height="226" rx="16" fill="white"/>
</g>
<path d="M52.624 96.288C57.112 96.288 60.496 93.48 60.496 87.36H52.168V90.072H56.848C56.848 91.992 54.712 93.288 52.552 93.288C49.528 93.288 47.344 90.696 47.344 87.744C47.344 84.792 49.576 82.272 52.456 82.272C53.896 82.272 55.216 82.896 56.152 83.904L58.576 81.816C57.136 80.208 54.952 79.176 52.456 79.176C47.704 79.176 44.008 83.04 44.008 87.744C44.008 92.424 47.632 96.288 52.624 96.288ZM75.3319 90.24L73.0519 81.792H70.3399L68.0119 90.24L64.6519 79.464H61.0519L66.6439 96H69.3079L71.6599 87.024L74.0599 96H76.7239L82.3399 79.464H78.7159L75.3319 90.24ZM95.9022 96.288C99.2862 96.288 102.238 93.96 102.238 90.168V79.464H98.9022V89.952C98.9022 92.208 97.4622 93.12 95.9022 93.12C94.3662 93.12 92.9262 92.208 92.9262 89.952V79.464H89.5902V90.168C89.5902 93.96 92.5422 96.288 95.9022 96.288ZM113.823 87.168L119.031 79.464H115.047L111.855 84.528L108.687 79.464H104.655L109.863 87.168L104.151 96H108.063L111.855 89.832L115.623 96H119.583L113.823 87.168ZM122.948 96L130.916 79.464H128.396L120.428 96H122.948ZM139.637 96.288C143.021 96.288 145.973 93.96 145.973 90.168V79.464H142.637V89.952C142.637 92.208 141.197 93.12 139.637 93.12C138.101 93.12 136.661 92.208 136.661 89.952V79.464H133.325V90.168C133.325 93.96 136.277 96.288 139.637 96.288ZM153.141 96V79.464H149.805V96H153.141ZM172.003 87.168C173.803 86.616 174.283 84.96 174.283 83.736C174.283 81.24 172.387 79.464 169.435 79.464H162.883V96H169.939C173.587 96 175.147 93.552 175.147 91.272C175.147 89.4 174.115 87.528 172.003 87.168ZM170.947 84.216C170.947 85.344 170.299 86.04 169.243 86.04H166.219V82.416H169.243C170.419 82.416 170.947 83.208 170.947 84.216ZM166.219 93.048V88.824H169.507C171.091 88.824 171.787 89.904 171.787 90.936C171.787 92.04 171.019 93.048 169.459 93.048H166.219ZM183.084 96.288C186.276 96.288 189.108 93.936 189.108 90.408C189.108 86.856 186.276 84.504 183.084 84.504C179.892 84.504 177.06 86.856 177.06 90.408C177.06 93.936 179.892 96.288 183.084 96.288ZM183.084 93.36C181.524 93.36 180.252 92.136 180.252 90.408C180.252 88.656 181.524 87.432 183.084 87.432C184.644 87.432 185.916 88.656 185.916 90.408C185.916 92.136 184.644 93.36 183.084 93.36ZM196.912 96.288C200.104 96.288 202.936 93.936 202.936 90.408C202.936 86.856 200.104 84.504 196.912 84.504C193.72 84.504 190.888 86.856 190.888 90.408C190.888 93.936 193.72 96.288 196.912 96.288ZM196.912 93.36C195.352 93.36 194.08 92.136 194.08 90.408C194.08 88.656 195.352 87.432 196.912 87.432C198.472 87.432 199.744 88.656 199.744 90.408C199.744 92.136 198.472 93.36 196.912 93.36ZM209.425 84.792V80.712H206.281V84.792H204.241V87.24H206.281V96H209.425V87.24H211.801V84.792H209.425ZM227.392 96.288C230.2 96.288 232.648 94.944 234.136 92.856L231.592 91.008C230.656 92.328 229.264 93.144 227.488 93.144C224.488 93.144 222.328 90.672 222.328 87.72C222.328 84.768 224.512 82.32 227.512 82.32C229.264 82.32 230.656 83.136 231.592 84.456L234.136 82.608C232.648 80.52 230.2 79.176 227.392 79.176C222.712 79.176 218.992 83.064 218.992 87.72C218.992 92.424 222.712 96.288 227.392 96.288ZM244.633 86.28C243.889 85.128 242.449 84.504 241.009 84.504C237.793 84.504 235.537 86.928 235.537 90.408C235.537 93.888 237.841 96.288 240.937 96.288C242.449 96.288 243.889 95.544 244.633 94.392V96H247.777V84.792H244.633V86.28ZM241.633 93.36C239.977 93.36 238.753 91.968 238.753 90.408C238.753 88.776 239.977 87.432 241.609 87.432C243.169 87.432 244.537 88.704 244.537 90.408C244.537 92.016 243.217 93.36 241.633 93.36ZM264.607 84.504C263.431 84.504 261.679 85.08 260.863 86.712C260.191 85.296 258.919 84.504 257.263 84.504C255.991 84.504 254.335 85.32 254.095 86.976V84.792H250.951V96H254.095V90.096C254.095 88.08 255.247 87.456 256.375 87.456C257.431 87.456 258.343 88.224 258.343 90V96H261.487V90.48C261.487 88.392 262.351 87.432 263.695 87.456C264.799 87.456 265.711 88.2 265.711 89.952V96H268.879V89.856C268.879 86.496 267.415 84.504 264.607 84.504ZM278.625 84.504C277.353 84.504 275.817 85.032 275.025 86.16V84.792H271.881V101.496H275.025V94.608C275.817 95.76 277.353 96.288 278.625 96.288C281.505 96.288 284.121 94.008 284.121 90.384C284.121 86.808 281.505 84.504 278.625 84.504ZM278.025 93.36C276.561 93.36 275.121 92.112 275.121 90.408C275.121 88.704 276.489 87.432 278.025 87.432C279.609 87.432 280.905 88.752 280.905 90.408C280.905 92.064 279.609 93.36 278.025 93.36Z" fill="#0A0A0A"/>
<path d="M52.048 127.8C53.08 126.576 53.872 124.968 53.872 123.744C53.872 120.96 51.904 119.112 48.952 119.112C46.264 119.112 44.392 120.696 44.08 123.072L45.952 123.48C46.072 122.064 47.248 121.104 48.952 121.104C50.656 121.104 51.784 122.16 51.784 123.744C51.784 124.464 51.112 125.736 50.128 126.936L44.224 134.064V135H54.088V132.984H47.728L52.048 127.8ZM62.455 135.288C66.967 135.288 68.143 131.616 68.143 127.2C68.143 122.736 66.967 119.112 62.455 119.112C57.943 119.112 56.767 122.736 56.767 127.2C56.767 131.616 57.943 135.288 62.455 135.288ZM62.455 133.32C59.575 133.32 58.879 130.464 58.879 127.2C58.879 123.888 59.575 121.104 62.455 121.104C65.335 121.104 66.055 123.888 66.055 127.2C66.055 130.464 65.335 133.32 62.455 133.32ZM78.5793 127.8C79.6113 126.576 80.4033 124.968 80.4033 123.744C80.4033 120.96 78.4353 119.112 75.4833 119.112C72.7953 119.112 70.9233 120.696 70.6113 123.072L72.4833 123.48C72.6033 122.064 73.7793 121.104 75.4833 121.104C77.1873 121.104 78.3153 122.16 78.3153 123.744C78.3153 124.464 77.6433 125.736 76.6593 126.936L70.7553 134.064V135H80.6193V132.984H74.2593L78.5793 127.8ZM82.5783 121.512V123.528L85.9143 122.16V135H88.0023V119.112H87.9303L82.5783 121.512ZM106.279 130.416V128.4H97.9752V130.416H106.279ZM123.017 127.8C124.049 126.576 124.841 124.968 124.841 123.744C124.841 120.96 122.873 119.112 119.921 119.112C117.233 119.112 115.361 120.696 115.049 123.072L116.921 123.48C117.041 122.064 118.217 121.104 119.921 121.104C121.625 121.104 122.753 122.16 122.753 123.744C122.753 124.464 122.081 125.736 121.097 126.936L115.193 134.064V135H125.057V132.984H118.697L123.017 127.8ZM133.424 135.288C137.936 135.288 139.112 131.616 139.112 127.2C139.112 122.736 137.936 119.112 133.424 119.112C128.912 119.112 127.736 122.736 127.736 127.2C127.736 131.616 128.912 135.288 133.424 135.288ZM133.424 133.32C130.544 133.32 129.848 130.464 129.848 127.2C129.848 123.888 130.544 121.104 133.424 121.104C136.304 121.104 137.024 123.888 137.024 127.2C137.024 130.464 136.304 133.32 133.424 133.32ZM149.548 127.8C150.58 126.576 151.372 124.968 151.372 123.744C151.372 120.96 149.404 119.112 146.452 119.112C143.764 119.112 141.892 120.696 141.58 123.072L143.452 123.48C143.572 122.064 144.748 121.104 146.452 121.104C148.156 121.104 149.284 122.16 149.284 123.744C149.284 124.464 148.612 125.736 147.628 126.936L141.724 134.064V135H151.588V132.984H145.228L149.548 127.8ZM161.923 127.8C162.955 126.576 163.747 124.968 163.747 123.744C163.747 120.96 161.779 119.112 158.827 119.112C156.139 119.112 154.267 120.696 153.955 123.072L155.827 123.48C155.947 122.064 157.123 121.104 158.827 121.104C160.531 121.104 161.659 122.16 161.659 123.744C161.659 124.464 160.987 125.736 160.003 126.936L154.099 134.064V135H163.963V132.984H157.603L161.923 127.8ZM52.27 168.33V167.088H51.856C48.148 167.088 45.304 164.172 45.304 160.464C45.304 156.792 48.148 153.804 51.856 153.804C55.546 153.804 58.714 156.468 58.714 160.158C58.714 161.634 58.336 164.046 56.59 164.046C55.96 164.046 55.276 163.848 55.276 162.822V160.23C55.204 158.286 53.584 156.774 51.676 156.774C49.696 156.774 48.076 158.376 48.076 160.374C48.076 162.354 49.696 163.956 51.676 163.956C52.306 163.956 52.954 163.704 53.458 163.344V161.868C52.918 162.39 52.306 162.714 51.676 162.714C50.38 162.714 49.318 161.67 49.318 160.374C49.318 159.042 50.38 158.016 51.676 158.016C52.972 158.016 54.016 159.042 54.016 160.374V162.714C54.016 164.676 55.276 165.27 56.59 165.27C59.128 165.27 59.974 162.264 59.974 160.158C59.974 155.784 56.23 152.562 51.856 152.562C47.482 152.562 44.062 156.108 44.062 160.464C44.062 164.856 47.464 168.33 51.856 168.33H52.27ZM65.4205 152.598V154.11H69.2005V165H70.8385V154.11H74.6185V152.598H65.4205ZM80.5931 156.378C79.6751 156.378 78.3071 156.846 77.8031 157.872V152.022H76.2371V165H77.8031V160.446C77.8031 158.628 79.2071 157.926 80.3771 157.926C81.5471 157.926 82.4111 158.826 82.4111 160.23V165H83.9771V160.14C83.9951 157.782 82.6811 156.378 80.5931 156.378ZM94.5287 160.77C94.5287 158.106 92.7467 156.378 90.3527 156.378C87.9587 156.378 86.0327 158.106 86.0327 160.77C86.0327 163.434 87.9587 165.216 90.3527 165.216C91.9727 165.216 93.4847 164.424 94.2047 162.966L92.8547 162.426C92.3687 163.272 91.4327 163.74 90.4067 163.74C88.9667 163.74 87.8867 162.966 87.6527 161.472H94.4927C94.5107 161.238 94.5287 161.004 94.5287 160.77ZM87.6707 160.122C87.9227 158.61 88.9307 157.854 90.3527 157.854C91.7387 157.854 92.7647 158.682 92.9627 160.122H87.6707ZM106.994 165.216C110.522 165.216 112.862 163.128 112.862 158.79H107.462V160.212H111.062C111.062 162.192 109.226 163.704 106.994 163.704C104.384 163.704 102.35 161.49 102.35 158.826C102.35 156.162 104.384 153.894 106.994 153.894C108.164 153.894 109.244 154.362 110.036 155.064L111.17 154.002C110.09 153.012 108.632 152.382 106.994 152.382C103.466 152.382 100.712 155.298 100.712 158.826C100.712 162.336 103.466 165.216 106.994 165.216ZM122.777 160.77C122.777 158.106 120.995 156.378 118.601 156.378C116.207 156.378 114.281 158.106 114.281 160.77C114.281 163.434 116.207 165.216 118.601 165.216C120.221 165.216 121.733 164.424 122.453 162.966L121.103 162.426C120.617 163.272 119.681 163.74 118.655 163.74C117.215 163.74 116.135 162.966 115.901 161.472H122.741C122.759 161.238 122.777 161.004 122.777 160.77ZM115.919 160.122C116.171 158.61 117.179 157.854 118.601 157.854C119.987 157.854 121.013 158.682 121.211 160.122H115.919ZM128.727 165.216C131.121 165.216 133.137 163.452 133.137 160.788C133.137 158.124 131.121 156.378 128.727 156.378C126.333 156.378 124.335 158.124 124.335 160.788C124.335 163.452 126.333 165.216 128.727 165.216ZM128.727 163.74C127.197 163.74 125.919 162.534 125.919 160.788C125.919 159.06 127.197 157.854 128.727 157.854C130.275 157.854 131.571 159.06 131.571 160.788C131.571 162.534 130.275 163.74 128.727 163.74ZM139.259 156.378C138.143 156.378 137.333 157.026 136.901 158.502V156.594H135.317V165H136.901V161.922C136.901 159.708 137.567 157.89 139.241 157.89C139.565 157.89 140.015 157.962 140.465 158.178L140.717 156.702C140.465 156.54 139.853 156.378 139.259 156.378ZM148.639 157.908C148.081 156.936 146.893 156.378 145.633 156.378C143.329 156.378 141.439 158.124 141.439 160.788C141.439 163.434 143.347 165.216 145.651 165.216C146.857 165.216 148.081 164.64 148.639 163.686V163.938C148.639 166.782 147.487 167.826 145.633 167.826C144.697 167.826 143.707 167.304 143.185 166.35L141.853 167.052C142.681 168.528 144.103 169.302 145.633 169.302C148.405 169.302 150.205 167.808 150.205 163.83V156.594H148.639V157.908ZM145.777 163.74C144.247 163.74 143.023 162.444 143.023 160.77C143.023 159.078 144.247 157.854 145.777 157.854C147.163 157.854 148.639 158.952 148.639 160.77C148.639 162.57 147.289 163.74 145.777 163.74ZM160.886 160.77C160.886 158.106 159.104 156.378 156.71 156.378C154.316 156.378 152.39 158.106 152.39 160.77C152.39 163.434 154.316 165.216 156.71 165.216C158.33 165.216 159.842 164.424 160.562 162.966L159.212 162.426C158.726 163.272 157.79 163.74 156.764 163.74C155.324 163.74 154.244 162.966 154.01 161.472H160.85C160.868 161.238 160.886 161.004 160.886 160.77ZM154.028 160.122C154.28 158.61 155.288 157.854 156.71 157.854C158.096 157.854 159.122 158.682 159.32 160.122H154.028ZM176.871 162.372L174.549 154.29H173.307L171.003 162.408L167.835 152.598H166.089L170.283 165H171.705L173.919 157.17L176.151 165H177.573L181.767 152.598H180.021L176.871 162.372ZM189.209 157.908C188.651 156.918 187.463 156.378 186.203 156.378C183.827 156.378 182.009 158.304 182.009 160.788C182.009 163.362 183.935 165.216 186.131 165.216C187.481 165.216 188.651 164.514 189.209 163.506V165H190.775V156.594H189.209V157.908ZM186.365 163.74C184.817 163.74 183.593 162.39 183.593 160.788C183.593 159.204 184.817 157.854 186.347 157.854C187.751 157.854 189.209 159.06 189.209 160.788C189.209 162.498 187.859 163.74 186.365 163.74ZM195.984 165.216C197.73 165.216 199.242 164.226 199.242 162.66C199.242 161.706 198.792 160.662 197.046 160.23L195.804 159.924C195.264 159.798 194.724 159.492 194.724 158.916C194.724 158.268 195.264 157.746 196.074 157.746C196.74 157.746 197.406 158.178 197.424 158.826H198.936C198.936 157.134 197.46 156.378 196.038 156.378C194.346 156.378 193.158 157.476 193.158 158.862C193.158 160.212 193.968 160.896 195.372 161.274L196.524 161.544C197.19 161.688 197.676 162.012 197.676 162.642C197.676 163.326 197.046 163.848 195.984 163.848C194.958 163.848 194.328 163.254 194.31 162.534H192.852C192.924 164.262 194.472 165.216 195.984 165.216ZM205.697 156.378C204.779 156.378 203.411 156.846 202.907 157.872V152.022H201.341V165H202.907V160.446C202.907 158.628 204.311 157.926 205.481 157.926C206.651 157.926 207.515 158.826 207.515 160.23V165H209.081V160.14C209.099 157.782 207.785 156.378 205.697 156.378ZM212.468 154.542C213.08 154.542 213.584 154.092 213.584 153.498C213.584 152.904 213.08 152.454 212.468 152.454C211.874 152.454 211.37 152.904 211.37 153.498C211.37 154.092 211.874 154.542 212.468 154.542ZM213.26 165V156.594H211.694V165H213.26ZM220.339 156.378C219.421 156.378 218.053 156.846 217.549 157.872V156.594H215.983V165H217.549V160.446C217.549 158.628 218.953 157.926 220.123 157.926C221.293 157.926 222.157 158.826 222.157 160.23V165H223.723V160.14C223.741 157.782 222.427 156.378 220.339 156.378ZM232.979 157.908C232.421 156.936 231.233 156.378 229.973 156.378C227.669 156.378 225.779 158.124 225.779 160.788C225.779 163.434 227.687 165.216 229.991 165.216C231.197 165.216 232.421 164.64 232.979 163.686V163.938C232.979 166.782 231.827 167.826 229.973 167.826C229.037 167.826 228.047 167.304 227.525 166.35L226.193 167.052C227.021 168.528 228.443 169.302 229.973 169.302C232.745 169.302 234.545 167.808 234.545 163.83V156.594H232.979V157.908ZM230.117 163.74C228.587 163.74 227.363 162.444 227.363 160.77C227.363 159.078 228.587 157.854 230.117 157.854C231.503 157.854 232.979 158.952 232.979 160.77C232.979 162.57 231.629 163.74 230.117 163.74ZM239.502 156.594V153.426H237.936V156.594H236.424V157.944H237.936V165H239.502V157.944H241.32V156.594H239.502ZM246.711 165.216C249.105 165.216 251.121 163.452 251.121 160.788C251.121 158.124 249.105 156.378 246.711 156.378C244.317 156.378 242.319 158.124 242.319 160.788C242.319 163.452 244.317 165.216 246.711 165.216ZM246.711 163.74C245.181 163.74 243.903 162.534 243.903 160.788C243.903 159.06 245.181 157.854 246.711 157.854C248.259 157.854 249.555 159.06 249.555 160.788C249.555 162.534 248.259 163.74 246.711 163.74ZM257.658 156.378C256.74 156.378 255.372 156.846 254.868 157.872V156.594H253.302V165H254.868V160.446C254.868 158.628 256.272 157.926 257.442 157.926C258.612 157.926 259.476 158.826 259.476 160.23V165H261.042V160.14C261.06 157.782 259.746 156.378 257.658 156.378ZM272.942 165.216C275.39 165.216 277.46 163.596 277.46 160.77V152.598H275.822V160.77C275.822 162.732 274.49 163.65 272.942 163.65C271.394 163.65 270.062 162.732 270.062 160.77V152.598H268.424V160.77C268.424 163.596 270.494 165.216 272.942 165.216ZM284.57 156.378C283.652 156.378 282.284 156.846 281.78 157.872V156.594H280.214V165H281.78V160.446C281.78 158.628 283.184 157.926 284.354 157.926C285.524 157.926 286.388 158.826 286.388 160.23V165H287.954V160.14C287.972 157.782 286.658 156.378 284.57 156.378ZM291.341 154.542C291.953 154.542 292.457 154.092 292.457 153.498C292.457 152.904 291.953 152.454 291.341 152.454C290.747 152.454 290.243 152.904 290.243 153.498C290.243 154.092 290.747 154.542 291.341 154.542ZM292.133 165V156.594H290.567V165H292.133ZM298.024 163.002L295.432 156.594H293.758L297.25 165H298.78L302.29 156.594H300.598L298.024 163.002ZM311.654 160.77C311.654 158.106 309.872 156.378 307.478 156.378C305.084 156.378 303.158 158.106 303.158 160.77C303.158 163.434 305.084 165.216 307.478 165.216C309.098 165.216 310.61 164.424 311.33 162.966L309.98 162.426C309.494 163.272 308.558 163.74 307.532 163.74C306.092 163.74 305.012 162.966 304.778 161.472H311.618C311.636 161.238 311.654 161.004 311.654 160.77ZM304.796 160.122C305.048 158.61 306.056 157.854 307.478 157.854C308.864 157.854 309.89 158.682 310.088 160.122H304.796ZM317.73 156.378C316.614 156.378 315.804 157.026 315.372 158.502V156.594H313.788V165H315.372V161.922C315.372 159.708 316.038 157.89 317.712 157.89C318.036 157.89 318.486 157.962 318.936 158.178L319.188 156.702C318.936 156.54 318.324 156.378 317.73 156.378ZM323.109 165.216C324.855 165.216 326.367 164.226 326.367 162.66C326.367 161.706 325.917 160.662 324.171 160.23L322.929 159.924C322.389 159.798 321.849 159.492 321.849 158.916C321.849 158.268 322.389 157.746 323.199 157.746C323.865 157.746 324.531 158.178 324.549 158.826H326.061C326.061 157.134 324.585 156.378 323.163 156.378C321.471 156.378 320.283 157.476 320.283 158.862C320.283 160.212 321.093 160.896 322.497 161.274L323.649 161.544C324.315 161.688 324.801 162.012 324.801 162.642C324.801 163.326 324.171 163.848 323.109 163.848C322.083 163.848 321.453 163.254 321.435 162.534H319.977C320.049 164.262 321.597 165.216 323.109 165.216ZM329.24 154.542C329.852 154.542 330.356 154.092 330.356 153.498C330.356 152.904 329.852 152.454 329.24 152.454C328.646 152.454 328.142 152.904 328.142 153.498C328.142 154.092 328.646 154.542 329.24 154.542ZM330.032 165V156.594H328.466V165H330.032ZM334.969 156.594V153.426H333.403V156.594H331.891V157.944H333.403V165H334.969V157.944H336.787V156.594H334.969ZM341.706 162.786L339.168 156.594H337.476L340.86 164.748L339.096 169.086H340.752L345.972 156.594H344.28L341.706 162.786Z" fill="black"/>
<path d="M56.112 52.432C60.324 52.432 63.996 50.416 66.228 47.284L62.412 44.512C61.008 46.492 58.92 47.716 56.256 47.716C51.756 47.716 48.516 44.008 48.516 39.58C48.516 35.152 51.792 31.48 56.292 31.48C58.92 31.48 61.008 32.704 62.412 34.684L66.228 31.912C63.996 28.78 60.324 26.764 56.112 26.764C49.092 26.764 43.512 32.596 43.512 39.58C43.512 46.636 49.092 52.432 56.112 52.432ZM86.9049 43.324C86.9049 38.176 82.9809 34.756 78.1569 34.756C73.3689 34.756 69.2289 38.176 69.2289 43.612C69.2289 48.796 73.0089 52.432 78.1929 52.432C81.1449 52.432 84.0609 51.172 85.6449 49.048L82.9089 46.276C81.8649 47.464 80.2089 48.256 78.4809 48.256C76.2489 48.256 74.6649 47.104 74.1609 45.124H86.7969C86.8689 44.368 86.9049 43.792 86.9049 43.324ZM74.1609 42.064C74.6649 39.796 76.3209 38.824 78.2649 38.824C80.3889 38.824 82.0089 40.084 82.1529 42.064H74.1609ZM101.069 34.756C98.9812 34.756 97.0732 35.98 96.1372 38.788V35.188H91.4572V52H96.1732V46.24C96.1732 41.452 97.8292 39.184 100.241 39.184C100.817 39.184 101.645 39.256 102.653 39.796L103.733 35.296C102.977 34.9 101.969 34.756 101.069 34.756ZM113.494 35.188V29.068H108.778V35.188H105.718V38.86H108.778V52H113.494V38.86H117.058V35.188H113.494ZM123.371 32.236C125.027 32.236 126.359 30.976 126.359 29.392C126.359 27.808 125.027 26.584 123.371 26.584C121.751 26.584 120.383 27.808 120.383 29.392C120.383 30.976 121.751 32.236 123.371 32.236ZM125.747 52V35.188H121.031V52H125.747ZM137.76 35.188V33.46C137.76 31.696 138.516 30.436 140.856 30.436H141.54V26.044H140.424C135.636 26.044 133.044 28.924 133.044 33.964V35.188H129.876V38.86H133.044V52H137.76V38.86H144.6V52H149.316V35.188H137.76ZM146.94 32.236C148.632 32.236 149.928 30.976 149.928 29.392C149.928 27.808 148.632 26.584 146.94 26.584C145.32 26.584 143.952 27.808 143.952 29.392C143.952 30.976 145.32 32.236 146.94 32.236ZM163.136 52.432C166.196 52.432 168.644 51.028 170.228 48.832L166.664 46.348C165.908 47.392 164.504 48.04 163.172 48.04C160.508 48.04 158.708 46.024 158.708 43.54C158.708 41.092 160.508 39.148 163.172 39.148C164.504 39.148 165.908 39.796 166.664 40.84L170.228 38.356C168.644 36.16 166.196 34.756 163.136 34.756C158.24 34.756 153.92 38.212 153.92 43.54C153.92 48.868 158.24 52.432 163.136 52.432ZM186.851 37.42C185.735 35.692 183.575 34.756 181.415 34.756C176.591 34.756 173.207 38.392 173.207 43.612C173.207 48.832 176.663 52.432 181.307 52.432C183.575 52.432 185.735 51.316 186.851 49.588V52H191.567V35.188H186.851V37.42ZM182.351 48.04C179.867 48.04 178.031 45.952 178.031 43.612C178.031 41.164 179.867 39.148 182.315 39.148C184.655 39.148 186.707 41.056 186.707 43.612C186.707 46.024 184.727 48.04 182.351 48.04ZM203.564 35.188V29.068H198.848V35.188H195.788V38.86H198.848V52H203.564V38.86H207.128V35.188H203.564ZM213.441 32.236C215.097 32.236 216.429 30.976 216.429 29.392C216.429 27.808 215.097 26.584 213.441 26.584C211.821 26.584 210.453 27.808 210.453 29.392C210.453 30.976 211.821 32.236 213.441 32.236ZM215.817 52V35.188H211.101V52H215.817ZM229.45 52.432C234.238 52.432 238.486 48.904 238.486 43.612C238.486 38.284 234.238 34.756 229.45 34.756C224.662 34.756 220.414 38.284 220.414 43.612C220.414 48.904 224.662 52.432 229.45 52.432ZM229.45 48.04C227.11 48.04 225.202 46.204 225.202 43.612C225.202 40.984 227.11 39.148 229.45 39.148C231.79 39.148 233.698 40.984 233.698 43.612C233.698 46.204 231.79 48.04 229.45 48.04ZM252.856 34.756C251.2 34.756 248.536 35.764 247.816 38.032V35.188H243.1V52H247.816V43.18C247.816 40.12 249.904 39.22 251.596 39.22C253.216 39.22 254.8 40.408 254.8 43.036V52H259.516V42.784C259.552 37.744 257.248 34.756 252.856 34.756Z" fill="#FF4E37"/>
<g filter="url(#filter1_d_370_801)">
<rect x="661" width="431" height="226" rx="16" fill="white"/>
</g>
<path d="M714.136 89.168C715.936 88.616 716.416 86.96 716.416 85.736C716.416 83.24 714.52 81.464 711.568 81.464H705.016V98H712.072C715.72 98 717.28 95.552 717.28 93.272C717.28 91.4 716.248 89.528 714.136 89.168ZM713.08 86.216C713.08 87.344 712.432 88.04 711.376 88.04H708.352V84.416H711.376C712.552 84.416 713.08 85.208 713.08 86.216ZM708.352 95.048V90.824H711.64C713.224 90.824 713.92 91.904 713.92 92.936C713.92 94.04 713.152 95.048 711.592 95.048H708.352ZM721.332 98.216C722.436 98.216 723.372 97.4 723.372 96.272C723.372 95.168 722.436 94.352 721.332 94.352C720.252 94.352 719.34 95.168 719.34 96.272C719.34 97.4 720.252 98.216 721.332 98.216ZM740.308 98L734.164 81.464H730.564L724.396 98H727.948L729.268 94.04H735.46L736.804 98H740.308ZM732.364 84.872L734.476 91.136H730.252L732.364 84.872ZM743.339 98.216C744.443 98.216 745.379 97.4 745.379 96.272C745.379 95.168 744.443 94.352 743.339 94.352C742.259 94.352 741.347 95.168 741.347 96.272C741.347 97.4 742.259 98.216 743.339 98.216ZM759.274 98.288C762.394 98.288 765.202 96.488 765.202 93.2C765.202 90.392 763.018 89.12 760.522 88.376L758.674 87.848C756.946 87.344 756.826 86.504 756.826 86.096C756.826 84.992 757.81 84.128 759.106 84.128C760.546 84.128 761.362 85.04 761.362 86.216H764.698C764.698 83.072 762.298 81.176 759.178 81.176C756.01 81.176 753.466 83.216 753.466 86.168C753.466 87.656 754.114 89.84 757.738 90.8L759.754 91.376C761.17 91.808 761.842 92.456 761.842 93.368C761.842 94.544 760.858 95.36 759.37 95.36C757.834 95.36 756.682 94.376 756.658 93.2H753.322C753.322 96.104 755.746 98.288 759.274 98.288ZM771.761 86.792V82.712H768.617V86.792H766.577V89.24H768.617V98H771.761V89.24H774.137V86.792H771.761ZM783.842 92.72C783.842 94.736 782.45 95.36 781.322 95.36C780.242 95.36 779.186 94.544 779.186 92.792V86.792H776.042V92.96C776.018 96.32 777.554 98.288 780.482 98.288C781.586 98.288 783.362 97.64 783.842 96.176V98H786.986V86.792H783.842V92.72ZM798.578 88.16C797.786 87.008 796.274 86.504 794.978 86.504C792.098 86.504 789.482 88.784 789.482 92.384C789.482 95.984 792.098 98.288 794.978 98.288C796.226 98.288 797.786 97.76 798.578 96.608V98H801.722V80.696H798.578V88.16ZM795.578 95.36C793.994 95.36 792.674 94.016 792.674 92.384C792.674 90.728 793.994 89.432 795.578 89.432C797.042 89.432 798.482 90.656 798.482 92.384C798.482 94.088 797.114 95.36 795.578 95.36ZM806.457 84.824C807.561 84.824 808.449 83.984 808.449 82.928C808.449 81.872 807.561 81.056 806.457 81.056C805.377 81.056 804.465 81.872 804.465 82.928C804.465 83.984 805.377 84.824 806.457 84.824ZM808.041 98V86.792H804.896V98H808.041ZM816.529 98.288C819.721 98.288 822.553 95.936 822.553 92.408C822.553 88.856 819.721 86.504 816.529 86.504C813.337 86.504 810.505 88.856 810.505 92.408C810.505 95.936 813.337 98.288 816.529 98.288ZM816.529 95.36C814.969 95.36 813.697 94.136 813.697 92.408C813.697 90.656 814.969 89.432 816.529 89.432C818.089 89.432 819.361 90.656 819.361 92.408C819.361 94.136 818.089 95.36 816.529 95.36ZM844.37 98L838.226 81.464H834.626L828.458 98H832.01L833.33 94.04H839.522L840.866 98H844.37ZM836.426 84.872L838.538 91.136H834.314L836.426 84.872ZM852.25 86.504C850.858 86.504 849.586 87.32 848.962 89.192V86.792H845.842V98H848.986V94.16C848.986 90.968 850.09 89.456 851.698 89.456C852.082 89.456 852.634 89.504 853.306 89.864L854.026 86.864C853.522 86.6 852.85 86.504 852.25 86.504ZM859.933 86.792V82.712H856.789V86.792H854.749V89.24H856.789V98H859.933V89.24H862.309V86.792H859.933ZM863.654 101.912C865.718 100.28 867.062 97.448 866.966 94.688H863.774C863.894 97.208 863.03 99.416 861.83 101.144L863.654 101.912ZM883.788 98.288C888.276 98.288 891.66 95.48 891.66 89.36H883.332V92.072H888.012C888.012 93.992 885.876 95.288 883.716 95.288C880.692 95.288 878.508 92.696 878.508 89.744C878.508 86.792 880.74 84.272 883.62 84.272C885.06 84.272 886.38 84.896 887.316 85.904L889.74 83.816C888.3 82.208 886.116 81.176 883.62 81.176C878.868 81.176 875.172 85.04 875.172 89.744C875.172 94.424 878.796 98.288 883.788 98.288ZM900.344 86.504C898.952 86.504 897.68 87.32 897.056 89.192V86.792H893.936V98H897.08V94.16C897.08 90.968 898.184 89.456 899.792 89.456C900.176 89.456 900.728 89.504 901.4 89.864L902.12 86.864C901.616 86.6 900.944 86.504 900.344 86.504ZM911.899 88.28C911.155 87.128 909.715 86.504 908.275 86.504C905.059 86.504 902.803 88.928 902.803 92.408C902.803 95.888 905.107 98.288 908.203 98.288C909.715 98.288 911.155 97.544 911.899 96.392V98H915.043V86.792H911.899V88.28ZM908.899 95.36C907.243 95.36 906.019 93.968 906.019 92.408C906.019 90.776 907.243 89.432 908.875 89.432C910.435 89.432 911.803 90.704 911.803 92.408C911.803 94.016 910.483 95.36 908.899 95.36ZM924.961 86.504C923.689 86.504 922.153 87.032 921.361 88.16V86.792H918.217V103.496H921.361V96.608C922.153 97.76 923.689 98.288 924.961 98.288C927.841 98.288 930.457 96.008 930.457 92.384C930.457 88.808 927.841 86.504 924.961 86.504ZM924.361 95.36C922.897 95.36 921.457 94.112 921.457 92.408C921.457 90.704 922.825 89.432 924.361 89.432C925.945 89.432 927.241 90.752 927.241 92.408C927.241 94.064 925.945 95.36 924.361 95.36ZM939.463 86.504C938.383 86.504 936.583 87.128 936.103 88.568V80.696H932.959V98H936.103V92.12C936.103 90.104 937.495 89.48 938.623 89.48C939.703 89.48 940.759 90.296 940.759 92.048V98H943.903V91.856C943.927 88.496 942.391 86.504 939.463 86.504ZM948.488 84.824C949.592 84.824 950.48 83.984 950.48 82.928C950.48 81.872 949.592 81.056 948.488 81.056C947.408 81.056 946.496 81.872 946.496 82.928C946.496 83.984 947.408 84.824 948.488 84.824ZM950.072 98V86.792H946.928V98H950.072ZM958.68 98.288C960.72 98.288 962.352 97.352 963.408 95.888L961.032 94.232C960.528 94.928 959.592 95.36 958.704 95.36C956.928 95.36 955.728 94.016 955.728 92.36C955.728 90.728 956.928 89.432 958.704 89.432C959.592 89.432 960.528 89.864 961.032 90.56L963.408 88.904C962.352 87.44 960.72 86.504 958.68 86.504C955.416 86.504 952.536 88.808 952.536 92.36C952.536 95.912 955.416 98.288 958.68 98.288ZM705.016 111.464V128H711.496C716.248 128 719.008 124.448 719.008 119.768C719.008 115.064 716.248 111.464 711.496 111.464H705.016ZM708.352 125.048V114.416H711.496C714.256 114.416 715.672 116.936 715.672 119.768C715.672 122.6 714.256 125.048 711.496 125.048H708.352ZM732.712 122.216C732.712 118.784 730.096 116.504 726.88 116.504C723.688 116.504 720.928 118.784 720.928 122.408C720.928 125.864 723.448 128.288 726.904 128.288C728.872 128.288 730.816 127.448 731.872 126.032L730.048 124.184C729.352 124.976 728.248 125.504 727.096 125.504C725.608 125.504 724.552 124.736 724.216 123.416H732.64C732.688 122.912 732.712 122.528 732.712 122.216ZM724.216 121.376C724.552 119.864 725.656 119.216 726.952 119.216C728.368 119.216 729.448 120.056 729.544 121.376H724.216ZM739.107 128.288C741.411 128.288 743.811 127.064 743.811 124.712C743.811 123.8 743.475 122.12 740.787 121.4L738.939 120.92C738.315 120.752 737.835 120.488 737.835 119.96C737.835 119.384 738.411 118.976 739.131 118.976C739.875 118.976 740.499 119.384 740.499 120.152H743.499C743.523 117.488 741.123 116.504 739.083 116.504C736.491 116.504 734.691 118.136 734.691 119.864C734.691 121.04 735.075 122.648 737.955 123.416L739.443 123.776C740.283 123.992 740.667 124.232 740.667 124.712C740.667 125.36 739.971 125.816 739.059 125.816C737.955 125.816 737.403 125.12 737.403 124.472H734.451C734.475 126.944 736.755 128.288 739.107 128.288ZM747.839 114.824C748.943 114.824 749.831 113.984 749.831 112.928C749.831 111.872 748.943 111.056 747.839 111.056C746.759 111.056 745.847 111.872 745.847 112.928C745.847 113.984 746.759 114.824 747.839 114.824ZM749.423 128V116.792H746.279V128H749.423ZM761.008 118.136C760.192 117.032 758.68 116.504 757.408 116.504C754.528 116.504 751.912 118.784 751.912 122.384C751.912 125.984 754.528 128.288 757.408 128.288C758.656 128.288 760.192 127.736 761.008 126.632V126.944C761.008 129.848 759.736 130.976 757.72 130.976C756.52 130.976 755.368 130.256 754.888 129.224L752.272 130.352C753.232 132.44 755.32 133.784 757.72 133.784C761.68 133.784 764.152 131.504 764.152 126.608V116.792H761.008V118.136ZM758.008 125.36C756.424 125.36 755.104 124.016 755.104 122.384C755.104 120.728 756.424 119.432 758.008 119.432C759.472 119.432 760.912 120.656 760.912 122.384C760.912 124.088 759.544 125.36 758.008 125.36ZM773.83 116.504C772.726 116.504 770.95 117.176 770.47 118.688V116.792H767.326V128H770.47V122.12C770.47 120.08 771.862 119.48 772.99 119.48C774.07 119.48 775.126 120.272 775.126 122.024V128H778.27V121.856C778.294 118.496 776.758 116.504 773.83 116.504ZM794.838 128.288C797.646 128.288 800.094 126.944 801.582 124.856L799.038 123.008C798.102 124.328 796.71 125.144 794.934 125.144C791.934 125.144 789.774 122.672 789.774 119.72C789.774 116.768 791.958 114.32 794.958 114.32C796.71 114.32 798.102 115.136 799.038 116.456L801.582 114.608C800.094 112.52 797.646 111.176 794.838 111.176C790.158 111.176 786.438 115.064 786.438 119.72C786.438 124.424 790.158 128.288 794.838 128.288ZM808.982 128.288C812.174 128.288 815.006 125.936 815.006 122.408C815.006 118.856 812.174 116.504 808.982 116.504C805.79 116.504 802.958 118.856 802.958 122.408C802.958 125.936 805.79 128.288 808.982 128.288ZM808.982 125.36C807.422 125.36 806.15 124.136 806.15 122.408C806.15 120.656 807.422 119.432 808.982 119.432C810.542 119.432 811.814 120.656 811.814 122.408C811.814 124.136 810.542 125.36 808.982 125.36ZM823.986 116.504C822.882 116.504 821.106 117.176 820.626 118.688V116.792H817.482V128H820.626V122.12C820.626 120.08 822.018 119.48 823.146 119.48C824.226 119.48 825.282 120.272 825.282 122.024V128H828.426V121.856C828.45 118.496 826.914 116.504 823.986 116.504ZM836.899 128.288C838.939 128.288 840.571 127.352 841.627 125.888L839.251 124.232C838.747 124.928 837.811 125.36 836.923 125.36C835.147 125.36 833.947 124.016 833.947 122.36C833.947 120.728 835.147 119.432 836.923 119.432C837.811 119.432 838.747 119.864 839.251 120.56L841.627 118.904C840.571 117.44 838.939 116.504 836.899 116.504C833.635 116.504 830.755 118.808 830.755 122.36C830.755 125.912 833.635 128.288 836.899 128.288ZM854.798 122.216C854.798 118.784 852.182 116.504 848.966 116.504C845.774 116.504 843.014 118.784 843.014 122.408C843.014 125.864 845.534 128.288 848.99 128.288C850.958 128.288 852.902 127.448 853.958 126.032L852.134 124.184C851.438 124.976 850.334 125.504 849.182 125.504C847.694 125.504 846.638 124.736 846.302 123.416H854.726C854.774 122.912 854.798 122.528 854.798 122.216ZM846.302 121.376C846.638 119.864 847.742 119.216 849.038 119.216C850.454 119.216 851.534 120.056 851.63 121.376H846.302ZM863.736 116.504C862.632 116.504 860.856 117.176 860.376 118.688V116.792H857.232V128H860.376V122.12C860.376 120.08 861.768 119.48 862.896 119.48C863.976 119.48 865.032 120.272 865.032 122.024V128H868.176V121.856C868.2 118.496 866.664 116.504 863.736 116.504ZM875.285 116.792V112.712H872.141V116.792H870.101V119.24H872.141V128H875.285V119.24H877.661V116.792H875.285ZM886.117 116.504C884.725 116.504 883.453 117.32 882.829 119.192V116.792H879.709V128H882.853V124.16C882.853 120.968 883.957 119.456 885.565 119.456C885.949 119.456 886.501 119.504 887.173 119.864L887.893 116.864C887.389 116.6 886.717 116.504 886.117 116.504ZM897.672 118.28C896.928 117.128 895.488 116.504 894.048 116.504C890.832 116.504 888.576 118.928 888.576 122.408C888.576 125.888 890.88 128.288 893.976 128.288C895.488 128.288 896.928 127.544 897.672 126.392V128H900.816V116.792H897.672V118.28ZM894.672 125.36C893.016 125.36 891.792 123.968 891.792 122.408C891.792 120.776 893.016 119.432 894.648 119.432C896.208 119.432 897.576 120.704 897.576 122.408C897.576 124.016 896.256 125.36 894.672 125.36ZM908.214 116.792V112.712H905.07V116.792H903.03V119.24H905.07V128H908.214V119.24H910.59V116.792H908.214ZM914.199 114.824C915.303 114.824 916.191 113.984 916.191 112.928C916.191 111.872 915.303 111.056 914.199 111.056C913.119 111.056 912.207 111.872 912.207 112.928C912.207 113.984 913.119 114.824 914.199 114.824ZM915.783 128V116.792H912.639V128H915.783ZM924.271 128.288C927.463 128.288 930.295 125.936 930.295 122.408C930.295 118.856 927.463 116.504 924.271 116.504C921.079 116.504 918.247 118.856 918.247 122.408C918.247 125.936 921.079 128.288 924.271 128.288ZM924.271 125.36C922.711 125.36 921.439 124.136 921.439 122.408C921.439 120.656 922.711 119.432 924.271 119.432C925.831 119.432 927.103 120.656 927.103 122.408C927.103 124.136 925.831 125.36 924.271 125.36ZM939.276 116.504C938.172 116.504 936.396 117.176 935.916 118.688V116.792H932.771V128H935.916V122.12C935.916 120.08 937.308 119.48 938.436 119.48C939.516 119.48 940.572 120.272 940.572 122.024V128H943.716V121.856C943.74 118.496 942.204 116.504 939.276 116.504Z" fill="#0A0A0A"/>
<path d="M712.048 160.8C713.08 159.576 713.872 157.968 713.872 156.744C713.872 153.96 711.904 152.112 708.952 152.112C706.264 152.112 704.392 153.696 704.08 156.072L705.952 156.48C706.072 155.064 707.248 154.104 708.952 154.104C710.656 154.104 711.784 155.16 711.784 156.744C711.784 157.464 711.112 158.736 710.128 159.936L704.224 167.064V168H714.088V165.984H707.728L712.048 160.8ZM722.455 168.288C726.967 168.288 728.143 164.616 728.143 160.2C728.143 155.736 726.967 152.112 722.455 152.112C717.943 152.112 716.767 155.736 716.767 160.2C716.767 164.616 717.943 168.288 722.455 168.288ZM722.455 166.32C719.575 166.32 718.879 163.464 718.879 160.2C718.879 156.888 719.575 154.104 722.455 154.104C725.335 154.104 726.055 156.888 726.055 160.2C726.055 163.464 725.335 166.32 722.455 166.32ZM730.203 154.512V156.528L733.539 155.16V168H735.627V152.112H735.555L730.203 154.512ZM739.146 154.296H746.442L738.882 168H741.354L749.874 152.472V152.304H739.146V154.296ZM766.092 163.416V161.4H757.788V163.416H766.092ZM782.829 160.8C783.861 159.576 784.653 157.968 784.653 156.744C784.653 153.96 782.685 152.112 779.733 152.112C777.045 152.112 775.173 153.696 774.861 156.072L776.733 156.48C776.853 155.064 778.029 154.104 779.733 154.104C781.437 154.104 782.565 155.16 782.565 156.744C782.565 157.464 781.893 158.736 780.909 159.936L775.005 167.064V168H784.869V165.984H778.509L782.829 160.8ZM793.236 168.288C797.748 168.288 798.924 164.616 798.924 160.2C798.924 155.736 797.748 152.112 793.236 152.112C788.724 152.112 787.548 155.736 787.548 160.2C787.548 164.616 788.724 168.288 793.236 168.288ZM793.236 166.32C790.356 166.32 789.66 163.464 789.66 160.2C789.66 156.888 790.356 154.104 793.236 154.104C796.116 154.104 796.836 156.888 796.836 160.2C796.836 163.464 796.116 166.32 793.236 166.32ZM809.361 160.8C810.393 159.576 811.185 157.968 811.185 156.744C811.185 153.96 809.217 152.112 806.265 152.112C803.577 152.112 801.705 153.696 801.393 156.072L803.265 156.48C803.385 155.064 804.561 154.104 806.265 154.104C807.969 154.104 809.097 155.16 809.097 156.744C809.097 157.464 808.425 158.736 807.441 159.936L801.537 167.064V168H811.401V165.984H805.041L809.361 160.8ZM819.768 168.288C824.28 168.288 825.456 164.616 825.456 160.2C825.456 155.736 824.28 152.112 819.768 152.112C815.256 152.112 814.08 155.736 814.08 160.2C814.08 164.616 815.256 168.288 819.768 168.288ZM819.768 166.32C816.888 166.32 816.192 163.464 816.192 160.2C816.192 156.888 816.888 154.104 819.768 154.104C822.648 154.104 823.368 156.888 823.368 160.2C823.368 163.464 822.648 166.32 819.768 166.32ZM712.27 201.33V200.088H711.856C708.148 200.088 705.304 197.172 705.304 193.464C705.304 189.792 708.148 186.804 711.856 186.804C715.546 186.804 718.714 189.468 718.714 193.158C718.714 194.634 718.336 197.046 716.59 197.046C715.96 197.046 715.276 196.848 715.276 195.822V193.23C715.204 191.286 713.584 189.774 711.676 189.774C709.696 189.774 708.076 191.376 708.076 193.374C708.076 195.354 709.696 196.956 711.676 196.956C712.306 196.956 712.954 196.704 713.458 196.344V194.868C712.918 195.39 712.306 195.714 711.676 195.714C710.38 195.714 709.318 194.67 709.318 193.374C709.318 192.042 710.38 191.016 711.676 191.016C712.972 191.016 714.016 192.042 714.016 193.374V195.714C714.016 197.676 715.276 198.27 716.59 198.27C719.128 198.27 719.974 195.264 719.974 193.158C719.974 188.784 716.23 185.562 711.856 185.562C707.482 185.562 704.062 189.108 704.062 193.464C704.062 197.856 707.464 201.33 711.856 201.33H712.27ZM731.778 198.216C734.226 198.216 736.296 196.596 736.296 193.77V185.598H734.658V193.77C734.658 195.732 733.326 196.65 731.778 196.65C730.23 196.65 728.898 195.732 728.898 193.77V185.598H727.26V193.77C727.26 196.596 729.33 198.216 731.778 198.216ZM743.406 189.378C742.488 189.378 741.12 189.846 740.616 190.872V189.594H739.05V198H740.616V193.446C740.616 191.628 742.02 190.926 743.19 190.926C744.36 190.926 745.224 191.826 745.224 193.23V198H746.79V193.14C746.808 190.782 745.494 189.378 743.406 189.378ZM750.177 187.542C750.789 187.542 751.293 187.092 751.293 186.498C751.293 185.904 750.789 185.454 750.177 185.454C749.583 185.454 749.079 185.904 749.079 186.498C749.079 187.092 749.583 187.542 750.177 187.542ZM750.969 198V189.594H749.403V198H750.969ZM756.86 196.002L754.268 189.594H752.594L756.086 198H757.616L761.126 189.594H759.434L756.86 196.002ZM770.49 193.77C770.49 191.106 768.708 189.378 766.314 189.378C763.92 189.378 761.994 191.106 761.994 193.77C761.994 196.434 763.92 198.216 766.314 198.216C767.934 198.216 769.446 197.424 770.166 195.966L768.816 195.426C768.33 196.272 767.394 196.74 766.368 196.74C764.928 196.74 763.848 195.966 763.614 194.472H770.454C770.472 194.238 770.49 194.004 770.49 193.77ZM763.632 193.122C763.884 191.61 764.892 190.854 766.314 190.854C767.7 190.854 768.726 191.682 768.924 193.122H763.632ZM776.566 189.378C775.45 189.378 774.64 190.026 774.208 191.502V189.594H772.624V198H774.208V194.922C774.208 192.708 774.874 190.89 776.548 190.89C776.872 190.89 777.322 190.962 777.772 191.178L778.024 189.702C777.772 189.54 777.16 189.378 776.566 189.378ZM781.945 198.216C783.691 198.216 785.203 197.226 785.203 195.66C785.203 194.706 784.753 193.662 783.007 193.23L781.765 192.924C781.225 192.798 780.685 192.492 780.685 191.916C780.685 191.268 781.225 190.746 782.035 190.746C782.701 190.746 783.367 191.178 783.385 191.826H784.897C784.897 190.134 783.421 189.378 781.999 189.378C780.307 189.378 779.119 190.476 779.119 191.862C779.119 193.212 779.929 193.896 781.333 194.274L782.485 194.544C783.151 194.688 783.637 195.012 783.637 195.642C783.637 196.326 783.007 196.848 781.945 196.848C780.919 196.848 780.289 196.254 780.271 195.534H778.813C778.885 197.262 780.433 198.216 781.945 198.216ZM788.076 187.542C788.688 187.542 789.192 187.092 789.192 186.498C789.192 185.904 788.688 185.454 788.076 185.454C787.482 185.454 786.978 185.904 786.978 186.498C786.978 187.092 787.482 187.542 788.076 187.542ZM788.868 198V189.594H787.302V198H788.868ZM793.805 189.594V186.426H792.239V189.594H790.727V190.944H792.239V198H793.805V190.944H795.623V189.594H793.805ZM800.542 195.786L798.004 189.594H796.312L799.696 197.748L797.932 202.086H799.588L804.808 189.594H803.116L800.542 195.786ZM814.778 198.216C817.172 198.216 819.188 196.452 819.188 193.788C819.188 191.124 817.172 189.378 814.778 189.378C812.384 189.378 810.386 191.124 810.386 193.788C810.386 196.452 812.384 198.216 814.778 198.216ZM814.778 196.74C813.248 196.74 811.97 195.534 811.97 193.788C811.97 192.06 813.248 190.854 814.778 190.854C816.326 190.854 817.622 192.06 817.622 193.788C817.622 195.534 816.326 196.74 814.778 196.74ZM825.962 186.498V185.022H825.062C822.812 185.022 821.894 186.534 821.894 188.73V189.594H820.274V190.944H821.894V198H823.46V190.944H825.422V189.594H823.46V188.514C823.442 187.416 823.838 186.498 825.332 186.498H825.962ZM844.348 185.598H842.872L838.462 194.796L834.034 185.598H832.558L831.046 198H832.648L833.782 188.55L837.76 196.65H839.182L843.124 188.55L844.276 198H845.878L844.348 185.598ZM854.763 190.908C854.205 189.918 853.017 189.378 851.757 189.378C849.381 189.378 847.563 191.304 847.563 193.788C847.563 196.362 849.489 198.216 851.685 198.216C853.035 198.216 854.205 197.514 854.763 196.506V198H856.329V189.594H854.763V190.908ZM851.919 196.74C850.371 196.74 849.147 195.39 849.147 193.788C849.147 192.204 850.371 190.854 851.901 190.854C853.305 190.854 854.763 192.06 854.763 193.788C854.763 195.498 853.413 196.74 851.919 196.74ZM863.015 189.378C861.899 189.378 861.089 190.026 860.657 191.502V189.594H859.073V198H860.657V194.922C860.657 192.708 861.323 190.89 862.997 190.89C863.321 190.89 863.771 190.962 864.221 191.178L864.473 189.702C864.221 189.54 863.609 189.378 863.015 189.378ZM869.202 195.786L866.664 189.594H864.972L868.356 197.748L866.592 202.086H868.248L873.468 189.594H871.776L869.202 195.786ZM876.635 198V185.022H875.069V198H876.635ZM885.982 190.908C885.424 189.918 884.236 189.378 882.976 189.378C880.6 189.378 878.782 191.304 878.782 193.788C878.782 196.362 880.708 198.216 882.904 198.216C884.254 198.216 885.424 197.514 885.982 196.506V198H887.548V189.594H885.982V190.908ZM883.138 196.74C881.59 196.74 880.366 195.39 880.366 193.788C880.366 192.204 881.59 190.854 883.12 190.854C884.524 190.854 885.982 192.06 885.982 193.788C885.982 195.498 884.632 196.74 883.138 196.74ZM894.648 189.378C893.73 189.378 892.362 189.846 891.858 190.872V189.594H890.292V198H891.858V193.446C891.858 191.628 893.262 190.926 894.432 190.926C895.602 190.926 896.466 191.826 896.466 193.23V198H898.032V193.14C898.05 190.782 896.736 189.378 894.648 189.378ZM907.287 190.908C906.729 189.918 905.541 189.378 904.281 189.378C901.977 189.378 900.087 191.124 900.087 193.788C900.087 196.434 901.995 198.216 904.299 198.216C905.505 198.216 906.729 197.64 907.287 196.686V198H908.853V185.022H907.287V190.908ZM904.425 196.74C902.895 196.74 901.671 195.444 901.671 193.77C901.671 192.078 902.895 190.854 904.425 190.854C905.811 190.854 907.287 191.952 907.287 193.77C907.287 195.57 905.937 196.74 904.425 196.74ZM911.291 200.898C912.677 199.728 913.505 197.802 913.289 195.732H911.579C911.813 197.928 911.219 199.134 910.211 200.574L911.291 200.898ZM926.34 198.216C928.248 198.216 929.904 197.406 931.002 196.11L929.814 195.102C928.986 196.074 927.726 196.704 926.34 196.704C923.73 196.704 921.678 194.472 921.678 191.826C921.678 189.162 923.73 186.894 926.34 186.894C927.726 186.894 928.986 187.524 929.814 188.496L931.002 187.488C929.904 186.192 928.248 185.382 926.34 185.382C922.83 185.382 920.04 188.316 920.04 191.826C920.04 195.336 922.83 198.216 926.34 198.216ZM936.682 198.216C939.076 198.216 941.092 196.452 941.092 193.788C941.092 191.124 939.076 189.378 936.682 189.378C934.288 189.378 932.29 191.124 932.29 193.788C932.29 196.452 934.288 198.216 936.682 198.216ZM936.682 196.74C935.152 196.74 933.874 195.534 933.874 193.788C933.874 192.06 935.152 190.854 936.682 190.854C938.23 190.854 939.526 192.06 939.526 193.788C939.526 195.534 938.23 196.74 936.682 196.74ZM944.838 198V185.022H943.272V198H944.838ZM949.127 198V185.022H947.561V198H949.127ZM959.788 193.77C959.788 191.106 958.006 189.378 955.612 189.378C953.218 189.378 951.292 191.106 951.292 193.77C951.292 196.434 953.218 198.216 955.612 198.216C957.232 198.216 958.744 197.424 959.464 195.966L958.114 195.426C957.628 196.272 956.692 196.74 955.666 196.74C954.226 196.74 953.146 195.966 952.912 194.472H959.752C959.77 194.238 959.788 194.004 959.788 193.77ZM952.93 193.122C953.182 191.61 954.19 190.854 955.612 190.854C956.998 190.854 958.024 191.682 958.222 193.122H952.93ZM968.565 190.908C968.007 189.936 966.819 189.378 965.559 189.378C963.255 189.378 961.365 191.124 961.365 193.788C961.365 196.434 963.273 198.216 965.577 198.216C966.783 198.216 968.007 197.64 968.565 196.686V196.938C968.565 199.782 967.413 200.826 965.559 200.826C964.623 200.826 963.633 200.304 963.111 199.35L961.779 200.052C962.607 201.528 964.029 202.302 965.559 202.302C968.331 202.302 970.131 200.808 970.131 196.83V189.594H968.565V190.908ZM965.703 196.74C964.173 196.74 962.949 195.444 962.949 193.77C962.949 192.078 964.173 190.854 965.703 190.854C967.089 190.854 968.565 191.952 968.565 193.77C968.565 195.57 967.215 196.74 965.703 196.74ZM980.812 193.77C980.812 191.106 979.03 189.378 976.636 189.378C974.242 189.378 972.316 191.106 972.316 193.77C972.316 196.434 974.242 198.216 976.636 198.216C978.256 198.216 979.768 197.424 980.488 195.966L979.138 195.426C978.652 196.272 977.716 196.74 976.69 196.74C975.25 196.74 974.17 195.966 973.936 194.472H980.776C980.794 194.238 980.812 194.004 980.812 193.77ZM973.954 193.122C974.206 191.61 975.214 190.854 976.636 190.854C978.022 190.854 979.048 191.682 979.246 193.122H973.954ZM987.859 185.598V198H989.497V193.338H992.791C995.419 193.338 996.481 191.43 996.481 189.468C996.481 187.542 995.419 185.598 992.791 185.598H987.859ZM989.497 191.808V187.11H992.773C994.249 187.11 994.843 188.316 994.843 189.468C994.843 190.656 994.231 191.808 992.683 191.808H989.497ZM1004.78 190.908C1004.22 189.918 1003.03 189.378 1001.77 189.378C999.393 189.378 997.575 191.304 997.575 193.788C997.575 196.362 999.501 198.216 1001.7 198.216C1003.05 198.216 1004.22 197.514 1004.78 196.506V198H1006.34V189.594H1004.78V190.908ZM1001.93 196.74C1000.38 196.74 999.159 195.39 999.159 193.788C999.159 192.204 1000.38 190.854 1001.91 190.854C1003.32 190.854 1004.78 192.06 1004.78 193.788C1004.78 195.498 1003.43 196.74 1001.93 196.74ZM1013.03 189.378C1011.91 189.378 1011.1 190.026 1010.67 191.502V189.594H1009.08V198H1010.67V194.922C1010.67 192.708 1011.33 190.89 1013.01 190.89C1013.33 190.89 1013.78 190.962 1014.23 191.178L1014.48 189.702C1014.23 189.54 1013.62 189.378 1013.03 189.378ZM1019.11 193.23L1022.71 189.594H1020.53L1017.61 192.564V185.022H1016.05V198H1017.61V193.896L1021.48 198H1023.59L1019.11 193.23Z" fill="black"/>
<path d="M705.024 27.196V52H714.744C721.872 52 726.012 46.672 726.012 39.652C726.012 32.596 721.872 27.196 714.744 27.196H705.024ZM710.028 47.572V31.624H714.744C718.884 31.624 721.008 35.404 721.008 39.652C721.008 43.9 718.884 47.572 714.744 47.572H710.028ZM747.467 43.324C747.467 38.176 743.543 34.756 738.719 34.756C733.931 34.756 729.791 38.176 729.791 43.612C729.791 48.796 733.571 52.432 738.755 52.432C741.707 52.432 744.623 51.172 746.207 49.048L743.471 46.276C742.427 47.464 740.771 48.256 739.043 48.256C736.811 48.256 735.227 47.104 734.723 45.124H747.359C747.431 44.368 747.467 43.792 747.467 43.324ZM734.723 42.064C735.227 39.796 736.883 38.824 738.827 38.824C740.951 38.824 742.571 40.084 742.715 42.064H734.723ZM764.656 37.204C763.432 35.548 761.164 34.756 759.256 34.756C754.936 34.756 751.012 38.176 751.012 43.576C751.012 48.976 754.936 52.432 759.256 52.432C761.128 52.432 763.432 51.604 764.656 49.948V50.416C764.656 54.772 762.748 56.464 759.724 56.464C757.924 56.464 756.196 55.384 755.476 53.836L751.552 55.528C752.992 58.66 756.124 60.676 759.724 60.676C765.664 60.676 769.372 57.256 769.372 49.912V35.188H764.656V37.204ZM760.156 48.04C757.78 48.04 755.8 46.024 755.8 43.576C755.8 41.092 757.78 39.148 760.156 39.148C762.352 39.148 764.512 40.984 764.512 43.576C764.512 46.132 762.46 48.04 760.156 48.04ZM784.645 34.756C782.557 34.756 780.649 35.98 779.713 38.788V35.188H775.033V52H779.749V46.24C779.749 41.452 781.405 39.184 783.817 39.184C784.393 39.184 785.221 39.256 786.229 39.796L787.309 35.296C786.553 34.9 785.545 34.756 784.645 34.756ZM806.91 43.324C806.91 38.176 802.986 34.756 798.162 34.756C793.374 34.756 789.234 38.176 789.234 43.612C789.234 48.796 793.014 52.432 798.198 52.432C801.15 52.432 804.066 51.172 805.65 49.048L802.914 46.276C801.87 47.464 800.214 48.256 798.486 48.256C796.254 48.256 794.67 47.104 794.166 45.124H806.802C806.874 44.368 806.91 43.792 806.91 43.324ZM794.166 42.064C794.67 39.796 796.326 38.824 798.27 38.824C800.394 38.824 802.014 40.084 802.158 42.064H794.166ZM828.13 43.324C828.13 38.176 824.206 34.756 819.382 34.756C814.594 34.756 810.454 38.176 810.454 43.612C810.454 48.796 814.234 52.432 819.418 52.432C822.37 52.432 825.286 51.172 826.87 49.048L824.134 46.276C823.09 47.464 821.434 48.256 819.706 48.256C817.474 48.256 815.89 47.104 815.386 45.124H828.022C828.094 44.368 828.13 43.792 828.13 43.324ZM815.386 42.064C815.89 39.796 817.546 38.824 819.49 38.824C821.614 38.824 823.234 40.084 823.378 42.064H815.386Z" fill="#FF4E37"/>
<line x1="418" y1="111.5" x2="661" y2="111.5" stroke="#FF4E37" stroke-width="3" stroke-dasharray="6 6"/>
<defs>
<filter id="filter0_d_370_801" x="0" y="0" width="425" height="235" filterUnits="userSpaceOnUse" color-interpolation-filters="sRGB">
<feFlood flood-opacity="0" result="BackgroundImageFix"/>
<feColorMatrix in="SourceAlpha" type="matrix" values="0 0 0 0 0 0 0 0 0 0 0 0 0 0 0 0 0 0 127 0" result="hardAlpha"/>
<feOffset dx="3" dy="5"/>
<feGaussianBlur stdDeviation="2"/>
<feComposite in2="hardAlpha" operator="out"/>
<feColorMatrix type="matrix" values="0 0 0 0 0 0 0 0 0 0 0 0 0 0 0 0 0 0 0.15 0"/>
<feBlend mode="normal" in2="BackgroundImageFix" result="effect1_dropShadow_370_801"/>
<feBlend mode="normal" in="SourceGraphic" in2="effect1_dropShadow_370_801" result="shape"/>
</filter>
<filter id="filter1_d_370_801" x="660" y="0" width="439" height="235" filterUnits="userSpaceOnUse" color-interpolation-filters="sRGB">
<feFlood flood-opacity="0" result="BackgroundImageFix"/>
<feColorMatrix in="SourceAlpha" type="matrix" values="0 0 0 0 0 0 0 0 0 0 0 0 0 0 0 0 0 0 127 0" result="hardAlpha"/>
<feOffset dx="3" dy="5"/>
<feGaussianBlur stdDeviation="2"/>
<feComposite in2="hardAlpha" operator="out"/>
<feColorMatrix type="matrix" values="0 0 0 0 0 0 0 0 0 0 0 0 0 0 0 0 0 0 0.15 0"/>
<feBlend mode="normal" in2="BackgroundImageFix" result="effect1_dropShadow_370_801"/>
<feBlend mode="normal" in="SourceGraphic" in2="effect1_dropShadow_370_801" result="shape"/>
</filter>
</defs>
</svg>
