<svg width="893" height="423" viewBox="0 0 893 423" fill="none" xmlns="http://www.w3.org/2000/svg">
<g filter="url(#filter0_d_372_996)">
<rect x="4" width="321" height="415" rx="16" fill="white"/>
</g>
<path d="M49.488 113V96.464H47.304V113H49.488ZM62.1956 103.544C61.4516 102.224 59.8676 101.504 58.1876 101.504C55.1156 101.504 52.5956 103.832 52.5956 107.384C52.5956 110.912 55.1396 113.288 58.2116 113.288C59.8196 113.288 61.4516 112.52 62.1956 111.248V113H64.2836V95.696H62.1956V103.544ZM58.3796 111.32C56.3396 111.32 54.7076 109.592 54.7076 107.36C54.7076 105.104 56.3396 103.472 58.3796 103.472C60.2276 103.472 62.1956 104.936 62.1956 107.36C62.1956 109.76 60.3956 111.32 58.3796 111.32ZM78.5252 107.36C78.5252 103.808 76.1492 101.504 72.9572 101.504C69.7652 101.504 67.1972 103.808 67.1972 107.36C67.1972 110.912 69.7652 113.288 72.9572 113.288C75.1172 113.288 77.1332 112.232 78.0932 110.288L76.2932 109.568C75.6452 110.696 74.3972 111.32 73.0292 111.32C71.1092 111.32 69.6692 110.288 69.3572 108.296H78.4772C78.5012 107.984 78.5252 107.672 78.5252 107.36ZM69.3812 106.496C69.7172 104.48 71.0612 103.472 72.9572 103.472C74.8052 103.472 76.1732 104.576 76.4372 106.496H69.3812ZM90.2029 103.544C89.4589 102.224 87.8749 101.504 86.1949 101.504C83.0269 101.504 80.6029 104.072 80.6029 107.384C80.6029 110.816 83.1709 113.288 86.0989 113.288C87.8989 113.288 89.4589 112.352 90.2029 111.008V113H92.2909V101.792H90.2029V103.544ZM86.4109 111.32C84.3469 111.32 82.7149 109.52 82.7149 107.384C82.7149 105.272 84.3469 103.472 86.3869 103.472C88.2589 103.472 90.2029 105.08 90.2029 107.384C90.2029 109.664 88.4029 111.32 86.4109 111.32ZM98.901 101.792V97.568H96.813V101.792H94.797V103.592H96.813V113H98.901V103.592H101.325V101.792H98.901ZM104.692 99.056C105.508 99.056 106.18 98.456 106.18 97.664C106.18 96.872 105.508 96.272 104.692 96.272C103.9 96.272 103.228 96.872 103.228 97.664C103.228 98.456 103.9 99.056 104.692 99.056ZM105.748 113V101.792H103.66V113H105.748ZM115.187 101.504C113.963 101.504 112.139 102.128 111.467 103.496V101.792H109.379V113H111.467V106.928C111.467 104.504 113.339 103.568 114.899 103.568C116.459 103.568 117.611 104.768 117.611 106.64V113H119.699V106.52C119.723 103.376 117.971 101.504 115.187 101.504ZM132.039 103.544C131.295 102.248 129.711 101.504 128.031 101.504C124.959 101.504 122.439 103.832 122.439 107.384C122.439 110.912 124.983 113.288 128.055 113.288C129.663 113.288 131.295 112.52 132.039 111.248V111.584C132.039 115.376 130.503 116.768 128.031 116.768C126.783 116.768 125.463 116.072 124.767 114.8L122.991 115.736C124.095 117.704 125.991 118.736 128.031 118.736C131.727 118.736 134.127 116.744 134.127 111.44V101.792H132.039V103.544ZM128.223 111.32C126.183 111.32 124.551 109.592 124.551 107.36C124.551 105.104 126.183 103.472 128.223 103.472C130.071 103.472 132.039 104.936 132.039 107.36C132.039 109.76 130.239 111.32 128.223 111.32ZM59.76 146.496L56.664 135.72H55.008L51.936 146.544L47.712 133.464H45.384L50.976 150H52.872L55.824 139.56L58.8 150H60.696L66.288 133.464H63.96L59.76 146.496ZM69.5357 136.056C70.3517 136.056 71.0237 135.456 71.0237 134.664C71.0237 133.872 70.3517 133.272 69.5357 133.272C68.7437 133.272 68.0717 133.872 68.0717 134.664C68.0717 135.456 68.7437 136.056 69.5357 136.056ZM70.5917 150V138.792H68.5037V150H70.5917ZM79.4784 138.504C77.9904 138.504 76.9104 139.368 76.3344 141.336V138.792H74.2224V150H76.3344V145.896C76.3344 142.944 77.2224 140.52 79.4544 140.52C79.8864 140.52 80.4864 140.616 81.0864 140.904L81.4224 138.936C81.0864 138.72 80.2704 138.504 79.4784 138.504ZM93.7127 144.36C93.7127 140.808 91.3367 138.504 88.1447 138.504C84.9527 138.504 82.3847 140.808 82.3847 144.36C82.3847 147.912 84.9527 150.288 88.1447 150.288C90.3047 150.288 92.3207 149.232 93.2807 147.288L91.4807 146.568C90.8327 147.696 89.5847 148.32 88.2167 148.32C86.2967 148.32 84.8567 147.288 84.5447 145.296H93.6647C93.6887 144.984 93.7127 144.672 93.7127 144.36ZM84.5687 143.496C84.9047 141.48 86.2487 140.472 88.1447 140.472C89.9927 140.472 91.3607 141.576 91.6247 143.496H84.5687ZM102.73 134.664V132.696H101.53C98.5303 132.696 97.3063 134.712 97.3063 137.64V138.792H95.1463V140.592H97.3063V150H99.3943V140.592H102.01V138.792H99.3943V137.352C99.3703 135.888 99.8983 134.664 101.89 134.664H102.73ZM109.549 138.504C108.061 138.504 106.981 139.368 106.405 141.336V138.792H104.293V150H106.405V145.896C106.405 142.944 107.293 140.52 109.525 140.52C109.957 140.52 110.557 140.616 111.157 140.904L111.493 138.936C111.157 138.72 110.341 138.504 109.549 138.504ZM122.031 140.544C121.287 139.224 119.703 138.504 118.023 138.504C114.855 138.504 112.431 141.072 112.431 144.384C112.431 147.816 114.999 150.288 117.927 150.288C119.727 150.288 121.287 149.352 122.031 148.008V150H124.119V138.792H122.031V140.544ZM118.239 148.32C116.175 148.32 114.543 146.52 114.543 144.384C114.543 142.272 116.175 140.472 118.215 140.472C120.087 140.472 122.031 142.08 122.031 144.384C122.031 146.664 120.231 148.32 118.239 148.32ZM141.073 138.504C139.945 138.504 138.193 138.888 137.161 140.904C136.513 139.368 135.097 138.504 133.465 138.504C131.881 138.504 130.417 139.296 129.865 140.52V138.792H127.777V150H129.865V143.928C129.865 141.552 131.449 140.52 133.033 140.52C134.521 140.52 135.553 141.744 135.553 143.64V150H137.641V144.384C137.641 141.888 138.673 140.496 140.665 140.52C142.297 140.52 143.329 141.768 143.329 143.64V150H145.417V143.52C145.417 140.376 143.881 138.504 141.073 138.504ZM149.926 136.056C150.742 136.056 151.414 135.456 151.414 134.664C151.414 133.872 150.742 133.272 149.926 133.272C149.134 133.272 148.462 133.872 148.462 134.664C148.462 135.456 149.134 136.056 149.926 136.056ZM150.982 150V138.792H148.894V150H150.982ZM160.421 138.504C159.197 138.504 157.373 139.128 156.701 140.496V138.792H154.613V150H156.701V143.928C156.701 141.504 158.573 140.568 160.133 140.568C161.693 140.568 162.845 141.768 162.845 143.64V150H164.933V143.52C164.957 140.376 163.205 138.504 160.421 138.504ZM177.274 140.544C176.53 139.248 174.946 138.504 173.266 138.504C170.194 138.504 167.674 140.832 167.674 144.384C167.674 147.912 170.218 150.288 173.29 150.288C174.898 150.288 176.53 149.52 177.274 148.248V148.584C177.274 152.376 175.738 153.768 173.266 153.768C172.018 153.768 170.698 153.072 170.002 151.8L168.226 152.736C169.33 154.704 171.226 155.736 173.266 155.736C176.962 155.736 179.362 153.744 179.362 148.44V138.792H177.274V140.544ZM173.458 148.32C171.418 148.32 169.786 146.592 169.786 144.36C169.786 142.104 171.418 140.472 173.458 140.472C175.306 140.472 177.274 141.936 177.274 144.36C177.274 146.76 175.474 148.32 173.458 148.32ZM47.304 170.464V187H49.488V180.784H53.88C57.384 180.784 58.8 178.24 58.8 175.624C58.8 173.056 57.384 170.464 53.88 170.464H47.304ZM49.488 178.744V172.48H53.856C55.824 172.48 56.616 174.088 56.616 175.624C56.616 177.208 55.8 178.744 53.736 178.744H49.488ZM66.5644 175.504C65.0764 175.504 63.9964 176.368 63.4204 178.336V175.792H61.3084V187H63.4204V182.896C63.4204 179.944 64.3084 177.52 66.5404 177.52C66.9724 177.52 67.5724 177.616 68.1724 177.904L68.5084 175.936C68.1724 175.72 67.3564 175.504 66.5644 175.504ZM75.3026 187.288C78.4946 187.288 81.1826 184.936 81.1826 181.384C81.1826 177.832 78.4946 175.504 75.3026 175.504C72.1106 175.504 69.4466 177.832 69.4466 181.384C69.4466 184.936 72.1106 187.288 75.3026 187.288ZM75.3026 185.32C73.2626 185.32 71.5586 183.712 71.5586 181.384C71.5586 179.08 73.2626 177.472 75.3026 177.472C77.3666 177.472 79.0946 179.08 79.0946 181.384C79.0946 183.712 77.3666 185.32 75.3026 185.32ZM86.8307 175.792V171.568H84.7427V175.792H82.7267V177.592H84.7427V187H86.8307V177.592H89.2547V175.792H86.8307ZM96.4433 187.288C99.6353 187.288 102.323 184.936 102.323 181.384C102.323 177.832 99.6353 175.504 96.4433 175.504C93.2513 175.504 90.5873 177.832 90.5873 181.384C90.5873 184.936 93.2513 187.288 96.4433 187.288ZM96.4433 185.32C94.4033 185.32 92.6992 183.712 92.6992 181.384C92.6992 179.08 94.4033 177.472 96.4433 177.472C98.5073 177.472 100.235 179.08 100.235 181.384C100.235 183.712 98.5073 185.32 96.4433 185.32ZM107.971 175.792V171.568H105.883V175.792H103.867V177.592H105.883V187H107.971V177.592H110.395V175.792H107.971ZM116.954 184.048L113.57 175.792H111.314L115.826 186.664L113.474 192.448H115.682L122.642 175.792H120.386L116.954 184.048ZM130.849 175.504C129.241 175.504 127.609 176.272 126.865 177.544V175.792H124.777V192.448H126.865V185.248C127.609 186.568 129.193 187.288 130.873 187.288C133.945 187.288 136.465 184.96 136.465 181.408C136.465 177.88 133.921 175.504 130.849 175.504ZM130.657 185.32C128.833 185.32 126.865 183.856 126.865 181.432C126.865 179.032 128.665 177.472 130.657 177.472C132.721 177.472 134.353 179.2 134.353 181.432C134.353 183.688 132.721 185.32 130.657 185.32ZM140.411 173.056C141.227 173.056 141.899 172.456 141.899 171.664C141.899 170.872 141.227 170.272 140.411 170.272C139.619 170.272 138.947 170.872 138.947 171.664C138.947 172.456 139.619 173.056 140.411 173.056ZM141.467 187V175.792H139.379V187H141.467ZM150.905 175.504C149.681 175.504 147.857 176.128 147.185 177.496V175.792H145.097V187H147.185V180.928C147.185 178.504 149.057 177.568 150.617 177.568C152.177 177.568 153.329 178.768 153.329 180.64V187H155.417V180.52C155.441 177.376 153.689 175.504 150.905 175.504ZM167.758 177.544C167.014 176.248 165.43 175.504 163.75 175.504C160.678 175.504 158.158 177.832 158.158 181.384C158.158 184.912 160.702 187.288 163.774 187.288C165.382 187.288 167.014 186.52 167.758 185.248V185.584C167.758 189.376 166.222 190.768 163.75 190.768C162.502 190.768 161.182 190.072 160.486 188.8L158.71 189.736C159.814 191.704 161.71 192.736 163.75 192.736C167.446 192.736 169.846 190.744 169.846 185.44V175.792H167.758V177.544ZM163.942 185.32C161.902 185.32 160.27 183.592 160.27 181.36C160.27 179.104 161.902 177.472 163.942 177.472C165.79 177.472 167.758 178.936 167.758 181.36C167.758 183.76 165.958 185.32 163.942 185.32ZM49.488 224V207.464H47.304V224H49.488ZM59.2648 212.504C58.0408 212.504 56.2168 213.128 55.5448 214.496V212.792H53.4568V224H55.5448V217.928C55.5448 215.504 57.4168 214.568 58.9768 214.568C60.5368 214.568 61.6888 215.768 61.6888 217.64V224H63.7768V217.52C63.8008 214.376 62.0488 212.504 59.2648 212.504ZM70.0729 212.792V208.568H67.9849V212.792H65.9689V214.592H67.9849V224H70.0729V214.592H72.4969V212.792H70.0729ZM85.1814 218.36C85.1814 214.808 82.8054 212.504 79.6134 212.504C76.4214 212.504 73.8534 214.808 73.8534 218.36C73.8534 221.912 76.4214 224.288 79.6134 224.288C81.7734 224.288 83.7894 223.232 84.7494 221.288L82.9494 220.568C82.3014 221.696 81.0534 222.32 79.6854 222.32C77.7654 222.32 76.3254 221.288 76.0134 219.296H85.1334C85.1574 218.984 85.1814 218.672 85.1814 218.36ZM76.0374 217.496C76.3734 215.48 77.7174 214.472 79.6134 214.472C81.4614 214.472 82.8294 215.576 83.0934 217.496H76.0374ZM93.2831 212.504C91.7951 212.504 90.7151 213.368 90.1391 215.336V212.792H88.0271V224H90.1391V219.896C90.1391 216.944 91.0271 214.52 93.2591 214.52C93.6911 214.52 94.2911 214.616 94.8911 214.904L95.2271 212.936C94.8911 212.72 94.0751 212.504 93.2831 212.504ZM105.765 214.544C105.021 213.224 103.437 212.504 101.757 212.504C98.5894 212.504 96.1654 215.072 96.1654 218.384C96.1654 221.816 98.7334 224.288 101.661 224.288C103.461 224.288 105.021 223.352 105.765 222.008V224H107.853V212.792H105.765V214.544ZM101.973 222.32C99.9094 222.32 98.2774 220.52 98.2774 218.384C98.2774 216.272 99.9094 214.472 101.949 214.472C103.821 214.472 105.765 216.08 105.765 218.384C105.765 220.664 103.965 222.32 101.973 222.32ZM116.743 224.288C118.496 224.288 120.032 223.616 121.016 222.512L119.696 221.144C119 221.864 117.992 222.32 116.816 222.32C114.608 222.32 112.832 220.688 112.832 218.384C112.832 216.08 114.608 214.472 116.816 214.472C117.992 214.472 119 214.928 119.696 215.648L121.016 214.28C120.032 213.2 118.496 212.504 116.743 212.504C113.528 212.504 110.72 214.832 110.72 218.384C110.72 221.936 113.528 224.288 116.743 224.288ZM126.604 212.792V208.568H124.516V212.792H122.5V214.592H124.516V224H126.604V214.592H129.028V212.792H126.604ZM132.395 210.056C133.211 210.056 133.883 209.456 133.883 208.664C133.883 207.872 133.211 207.272 132.395 207.272C131.603 207.272 130.931 207.872 130.931 208.664C130.931 209.456 131.603 210.056 132.395 210.056ZM133.451 224V212.792H131.363V224H133.451ZM142.17 224.288C145.362 224.288 148.05 221.936 148.05 218.384C148.05 214.832 145.362 212.504 142.17 212.504C138.978 212.504 136.314 214.832 136.314 218.384C136.314 221.936 138.978 224.288 142.17 224.288ZM142.17 222.32C140.13 222.32 138.426 220.712 138.426 218.384C138.426 216.08 140.13 214.472 142.17 214.472C144.234 214.472 145.962 216.08 145.962 218.384C145.962 220.712 144.234 222.32 142.17 222.32ZM156.765 212.504C155.541 212.504 153.717 213.128 153.045 214.496V212.792H150.957V224H153.045V217.928C153.045 215.504 154.917 214.568 156.477 214.568C158.037 214.568 159.189 215.768 159.189 217.64V224H161.277V217.52C161.301 214.376 159.549 212.504 156.765 212.504ZM171.312 207.464V224H177.72C182.424 224 185.184 220.448 185.184 215.768C185.184 211.064 182.424 207.464 177.72 207.464H171.312ZM173.496 221.984V209.48H177.72C181.2 209.48 183 212.24 183 215.768C183 219.296 181.2 221.984 177.72 221.984H173.496ZM198.83 218.36C198.83 214.808 196.454 212.504 193.262 212.504C190.07 212.504 187.502 214.808 187.502 218.36C187.502 221.912 190.07 224.288 193.262 224.288C195.422 224.288 197.438 223.232 198.398 221.288L196.598 220.568C195.95 221.696 194.702 222.32 193.334 222.32C191.414 222.32 189.974 221.288 189.662 219.296H198.782C198.806 218.984 198.83 218.672 198.83 218.36ZM189.686 217.496C190.022 215.48 191.366 214.472 193.262 214.472C195.11 214.472 196.478 215.576 196.742 217.496H189.686ZM204.964 224.288C207.292 224.288 209.308 222.968 209.308 220.88C209.308 219.608 208.708 218.216 206.38 217.64L204.724 217.232C204.004 217.064 203.284 216.656 203.284 215.888C203.284 215.024 204.004 214.328 205.084 214.328C205.972 214.328 206.86 214.904 206.884 215.768H208.9C208.9 213.512 206.932 212.504 205.036 212.504C202.78 212.504 201.196 213.968 201.196 215.816C201.196 217.616 202.276 218.528 204.148 219.032L205.684 219.392C206.572 219.584 207.22 220.016 207.22 220.856C207.22 221.768 206.38 222.464 204.964 222.464C203.596 222.464 202.756 221.672 202.732 220.712H200.788C200.884 223.016 202.948 224.288 204.964 224.288ZM213.137 210.056C213.953 210.056 214.625 209.456 214.625 208.664C214.625 207.872 213.953 207.272 213.137 207.272C212.345 207.272 211.673 207.872 211.673 208.664C211.673 209.456 212.345 210.056 213.137 210.056ZM214.193 224V212.792H212.105V224H214.193ZM226.68 214.544C225.936 213.248 224.352 212.504 222.672 212.504C219.6 212.504 217.08 214.832 217.08 218.384C217.08 221.912 219.624 224.288 222.696 224.288C224.304 224.288 225.936 223.52 226.68 222.248V222.584C226.68 226.376 225.144 227.768 222.672 227.768C221.424 227.768 220.104 227.072 219.408 225.8L217.632 226.736C218.736 228.704 220.632 229.736 222.672 229.736C226.368 229.736 228.768 227.744 228.768 222.44V212.792H226.68V214.544ZM222.864 222.32C220.824 222.32 219.192 220.592 219.192 218.36C219.192 216.104 220.824 214.472 222.864 214.472C224.712 214.472 226.68 215.936 226.68 218.36C226.68 220.76 224.88 222.32 222.864 222.32ZM238.234 212.504C237.01 212.504 235.186 213.128 234.514 214.496V212.792H232.426V224H234.514V217.928C234.514 215.504 236.386 214.568 237.946 214.568C239.506 214.568 240.658 215.768 240.658 217.64V224H242.746V217.52C242.77 214.376 241.018 212.504 238.234 212.504ZM49.488 261V244.464H47.304V261H49.488ZM59.2648 249.504C58.0408 249.504 56.2168 250.128 55.5448 251.496V249.792H53.4568V261H55.5448V254.928C55.5448 252.504 57.4168 251.568 58.9768 251.568C60.5368 251.568 61.6888 252.768 61.6888 254.64V261H63.7768V254.52C63.8008 251.376 62.0488 249.504 59.2648 249.504ZM73.4569 245.664V243.696H72.2569C69.2569 243.696 68.0329 245.712 68.0329 248.64V249.792H65.8729V251.592H68.0329V261H70.1209V251.592H72.7369V249.792H70.1209V248.352C70.0969 246.888 70.6249 245.664 72.6169 245.664H73.4569ZM79.8729 261.288C83.0649 261.288 85.7529 258.936 85.7529 255.384C85.7529 251.832 83.0649 249.504 79.8729 249.504C76.6809 249.504 74.0169 251.832 74.0169 255.384C74.0169 258.936 76.6809 261.288 79.8729 261.288ZM79.8729 259.32C77.8329 259.32 76.1289 257.712 76.1289 255.384C76.1289 253.08 77.8329 251.472 79.8729 251.472C81.9369 251.472 83.6649 253.08 83.6649 255.384C83.6649 257.712 81.9369 259.32 79.8729 259.32ZM89.4118 261.24C90.2518 261.24 90.9718 260.64 90.9718 259.8C90.9718 258.936 90.2518 258.312 89.4118 258.312C88.5958 258.312 87.8998 258.936 87.8998 259.8C87.8998 260.64 88.5958 261.24 89.4118 261.24ZM112.78 261L106.492 244.464H104.188L97.9001 261H100.18L101.788 256.752H108.892L110.5 261H112.78ZM105.34 247.32L108.172 254.832H102.508L105.34 247.32ZM119.908 249.504C118.42 249.504 117.34 250.368 116.764 252.336V249.792H114.652V261H116.764V256.896C116.764 253.944 117.652 251.52 119.884 251.52C120.316 251.52 120.916 251.616 121.516 251.904L121.852 249.936C121.516 249.72 120.7 249.504 119.908 249.504ZM128.79 261.288C130.542 261.288 132.078 260.616 133.062 259.512L131.742 258.144C131.046 258.864 130.038 259.32 128.862 259.32C126.654 259.32 124.878 257.688 124.878 255.384C124.878 253.08 126.654 251.472 128.862 251.472C130.038 251.472 131.046 251.928 131.742 252.648L133.062 251.28C132.078 250.2 130.542 249.504 128.79 249.504C125.574 249.504 122.766 251.832 122.766 255.384C122.766 258.936 125.574 261.288 128.79 261.288ZM141.507 249.504C140.283 249.504 138.459 250.128 137.787 251.496V243.696H135.699V261H137.787V254.928C137.787 252.504 139.659 251.568 141.219 251.568C142.779 251.568 143.931 252.768 143.931 254.64V261H146.019V254.52C146.043 251.376 144.291 249.504 141.507 249.504ZM150.536 247.056C151.352 247.056 152.024 246.456 152.024 245.664C152.024 244.872 151.352 244.272 150.536 244.272C149.744 244.272 149.072 244.872 149.072 245.664C149.072 246.456 149.744 247.056 150.536 247.056ZM151.592 261V249.792H149.504V261H151.592ZM158.174 249.792V245.568H156.086V249.792H154.07V251.592H156.086V261H158.174V251.592H160.598V249.792H158.174ZM173.283 255.36C173.283 251.808 170.907 249.504 167.715 249.504C164.523 249.504 161.955 251.808 161.955 255.36C161.955 258.912 164.523 261.288 167.715 261.288C169.875 261.288 171.891 260.232 172.851 258.288L171.051 257.568C170.403 258.696 169.155 259.32 167.787 259.32C165.867 259.32 164.427 258.288 164.115 256.296H173.235C173.259 255.984 173.283 255.672 173.283 255.36ZM164.139 254.496C164.475 252.48 165.819 251.472 167.715 251.472C169.563 251.472 170.931 252.576 171.195 254.496H164.139ZM181.361 261.288C183.113 261.288 184.649 260.616 185.633 259.512L184.313 258.144C183.617 258.864 182.609 259.32 181.433 259.32C179.225 259.32 177.449 257.688 177.449 255.384C177.449 253.08 179.225 251.472 181.433 251.472C182.609 251.472 183.617 251.928 184.313 252.648L185.633 251.28C184.649 250.2 183.113 249.504 181.361 249.504C178.145 249.504 175.337 251.832 175.337 255.384C175.337 258.936 178.145 261.288 181.361 261.288ZM191.221 249.792V245.568H189.133V249.792H187.117V251.592H189.133V261H191.221V251.592H193.645V249.792H191.221ZM204.068 255.96C204.044 258.384 202.172 259.32 200.612 259.32C199.052 259.32 197.924 258.12 197.924 256.224V249.792H195.836V256.272C195.812 259.416 197.54 261.288 200.348 261.288C201.596 261.288 203.396 260.664 204.068 259.248V261H206.156V249.792H204.068V255.96ZM215.041 249.504C213.553 249.504 212.473 250.368 211.897 252.336V249.792H209.785V261H211.897V256.896C211.897 253.944 212.785 251.52 215.017 251.52C215.449 251.52 216.049 251.616 216.649 251.904L216.985 249.936C216.649 249.72 215.833 249.504 215.041 249.504ZM229.275 255.36C229.275 251.808 226.899 249.504 223.707 249.504C220.515 249.504 217.947 251.808 217.947 255.36C217.947 258.912 220.515 261.288 223.707 261.288C225.867 261.288 227.883 260.232 228.843 258.288L227.043 257.568C226.395 258.696 225.147 259.32 223.779 259.32C221.859 259.32 220.419 258.288 220.107 256.296H229.227C229.251 255.984 229.275 255.672 229.275 255.36ZM220.131 254.496C220.467 252.48 221.811 251.472 223.707 251.472C225.555 251.472 226.923 252.576 227.187 254.496H220.131ZM57.6 288.784H49.488V281.464H47.304V298H49.488V290.776H57.6V298H59.784V281.464H57.6V288.784ZM62.5425 281.464V283.48H67.5825V298H69.7665V283.48H74.8065V281.464H62.5425ZM93.9868 281.464H92.0188L86.1388 293.728L80.2348 281.464H78.2668L76.2508 298H78.3868L79.8988 285.4L85.2028 296.2H87.0988L92.3548 285.4L93.8908 298H96.0268L93.9868 281.464ZM101.847 281.464H99.6634V298H108.615V295.984H101.847V281.464ZM110.541 301.864C112.389 300.304 113.493 297.736 113.205 294.976H110.925C111.237 297.904 110.445 299.512 109.101 301.432L110.541 301.864ZM130.607 298.288C133.151 298.288 135.359 297.208 136.823 295.48L135.239 294.136C134.135 295.432 132.455 296.272 130.607 296.272C127.127 296.272 124.391 293.296 124.391 289.768C124.391 286.216 127.127 283.192 130.607 283.192C132.455 283.192 134.135 284.032 135.239 285.328L136.823 283.984C135.359 282.256 133.151 281.176 130.607 281.176C125.927 281.176 122.207 285.088 122.207 289.768C122.207 294.448 125.927 298.288 130.607 298.288ZM144.658 298.288C148.09 298.288 150.178 295.912 150.178 293.344C150.178 290.992 148.498 289.552 145.69 288.808L143.53 288.232C141.322 287.656 141.13 286.504 141.13 285.928C141.13 284.296 142.666 283.192 144.322 283.192C146.098 283.192 147.466 284.32 147.466 285.976H149.626C149.626 283.024 147.298 281.176 144.394 281.176C141.514 281.176 138.946 283.096 138.946 285.952C138.946 287.296 139.498 289.36 143.002 290.2L145.138 290.728C146.53 291.088 147.994 291.808 147.994 293.416C147.994 294.88 146.794 296.272 144.658 296.272C142.45 296.272 141.058 294.784 140.986 293.32H138.826C138.85 295.888 141.178 298.288 144.658 298.288ZM158.322 298.288C161.754 298.288 163.842 295.912 163.842 293.344C163.842 290.992 162.162 289.552 159.354 288.808L157.194 288.232C154.986 287.656 154.794 286.504 154.794 285.928C154.794 284.296 156.33 283.192 157.986 283.192C159.762 283.192 161.13 284.32 161.13 285.976H163.29C163.29 283.024 160.962 281.176 158.058 281.176C155.178 281.176 152.61 283.096 152.61 285.952C152.61 287.296 153.162 289.36 156.666 290.2L158.802 290.728C160.194 291.088 161.658 291.808 161.658 293.416C161.658 294.88 160.458 296.272 158.322 296.272C156.114 296.272 154.722 294.784 154.65 293.32H152.49C152.514 295.888 154.842 298.288 158.322 298.288ZM166.322 301.864C168.17 300.304 169.274 297.736 168.986 294.976H166.706C167.018 297.904 166.226 299.512 164.882 301.432L166.322 301.864ZM187.732 289.192C189.292 288.592 189.82 287.128 189.82 285.688C189.82 283.096 188.092 281.464 185.356 281.464H179.14V298H185.884C188.908 298 190.708 295.72 190.708 293.344C190.708 291.544 189.676 289.624 187.732 289.192ZM187.636 285.904C187.636 287.32 186.892 288.352 185.404 288.352H181.324V283.48H185.332C186.844 283.48 187.636 284.488 187.636 285.904ZM181.324 295.984V290.272H185.548C187.564 290.272 188.524 291.664 188.524 293.152C188.524 294.688 187.468 295.984 185.428 295.984H181.324ZM198.842 298.288C202.034 298.288 204.722 295.936 204.722 292.384C204.722 288.832 202.034 286.504 198.842 286.504C195.65 286.504 192.986 288.832 192.986 292.384C192.986 295.936 195.65 298.288 198.842 298.288ZM198.842 296.32C196.802 296.32 195.098 294.712 195.098 292.384C195.098 290.08 196.802 288.472 198.842 288.472C200.906 288.472 202.634 290.08 202.634 292.384C202.634 294.712 200.906 296.32 198.842 296.32ZM212.717 298.288C215.909 298.288 218.597 295.936 218.597 292.384C218.597 288.832 215.909 286.504 212.717 286.504C209.525 286.504 206.861 288.832 206.861 292.384C206.861 295.936 209.525 298.288 212.717 298.288ZM212.717 296.32C210.677 296.32 208.973 294.712 208.973 292.384C208.973 290.08 210.677 288.472 212.717 288.472C214.781 288.472 216.509 290.08 216.509 292.384C216.509 294.712 214.781 296.32 212.717 296.32ZM224.245 286.792V282.568H222.157V286.792H220.141V288.592H222.157V298H224.245V288.592H226.669V286.792H224.245ZM232.198 298.288C234.526 298.288 236.542 296.968 236.542 294.88C236.542 293.608 235.942 292.216 233.614 291.64L231.958 291.232C231.238 291.064 230.518 290.656 230.518 289.888C230.518 289.024 231.238 288.328 232.318 288.328C233.206 288.328 234.094 288.904 234.118 289.768H236.134C236.134 287.512 234.166 286.504 232.27 286.504C230.014 286.504 228.43 287.968 228.43 289.816C228.43 291.616 229.51 292.528 231.382 293.032L232.918 293.392C233.806 293.584 234.454 294.016 234.454 294.856C234.454 295.768 233.614 296.464 232.198 296.464C230.83 296.464 229.99 295.672 229.966 294.712H228.022C228.118 297.016 230.182 298.288 232.198 298.288ZM242.292 286.792V282.568H240.204V286.792H238.188V288.592H240.204V298H242.292V288.592H244.716V286.792H242.292ZM252.307 286.504C250.819 286.504 249.739 287.368 249.163 289.336V286.792H247.051V298H249.163V293.896C249.163 290.944 250.051 288.52 252.283 288.52C252.715 288.52 253.315 288.616 253.915 288.904L254.251 286.936C253.915 286.72 253.099 286.504 252.307 286.504ZM264.789 288.544C264.045 287.224 262.461 286.504 260.781 286.504C257.613 286.504 255.189 289.072 255.189 292.384C255.189 295.816 257.757 298.288 260.685 298.288C262.485 298.288 264.045 297.352 264.789 296.008V298H266.877V286.792H264.789V288.544ZM260.997 296.32C258.933 296.32 257.301 294.52 257.301 292.384C257.301 290.272 258.933 288.472 260.973 288.472C262.845 288.472 264.789 290.08 264.789 292.384C264.789 294.664 262.989 296.32 260.997 296.32ZM276.607 286.504C274.999 286.504 273.367 287.272 272.623 288.544V286.792H270.535V303.448H272.623V296.248C273.367 297.568 274.951 298.288 276.631 298.288C279.703 298.288 282.223 295.96 282.223 292.408C282.223 288.88 279.679 286.504 276.607 286.504ZM276.415 296.32C274.591 296.32 272.623 294.856 272.623 292.432C272.623 290.032 274.423 288.472 276.415 288.472C278.479 288.472 280.111 290.2 280.111 292.432C280.111 294.688 278.479 296.32 276.415 296.32ZM64.104 318.464H62.136L56.256 330.728L50.352 318.464H48.384L46.368 335H48.504L50.016 322.4L55.32 333.2H57.216L62.472 322.4L64.008 335H66.144L64.104 318.464ZM74.2479 335.288C77.4399 335.288 80.1279 332.936 80.1279 329.384C80.1279 325.832 77.4399 323.504 74.2479 323.504C71.0559 323.504 68.3919 325.832 68.3919 329.384C68.3919 332.936 71.0559 335.288 74.2479 335.288ZM74.2479 333.32C72.2079 333.32 70.5039 331.712 70.5039 329.384C70.5039 327.08 72.2079 325.472 74.2479 325.472C76.3119 325.472 78.0399 327.08 78.0399 329.384C78.0399 331.712 76.3119 333.32 74.2479 333.32ZM85.776 323.792V319.568H83.688V323.792H81.672V325.592H83.688V335H85.776V325.592H88.2V323.792H85.776ZM91.5669 321.056C92.3829 321.056 93.0549 320.456 93.0549 319.664C93.0549 318.872 92.3829 318.272 91.5669 318.272C90.7749 318.272 90.1029 318.872 90.1029 319.664C90.1029 320.456 90.7749 321.056 91.5669 321.056ZM92.6229 335V323.792H90.5349V335H92.6229ZM101.342 335.288C104.534 335.288 107.222 332.936 107.222 329.384C107.222 325.832 104.534 323.504 101.342 323.504C98.1497 323.504 95.4857 325.832 95.4857 329.384C95.4857 332.936 98.1497 335.288 101.342 335.288ZM101.342 333.32C99.3017 333.32 97.5977 331.712 97.5977 329.384C97.5977 327.08 99.3017 325.472 101.342 325.472C103.406 325.472 105.134 327.08 105.134 329.384C105.134 331.712 103.406 333.32 101.342 333.32ZM115.937 323.504C114.713 323.504 112.889 324.128 112.217 325.496V323.792H110.129V335H112.217V328.928C112.217 326.504 114.089 325.568 115.649 325.568C117.209 325.568 118.361 326.768 118.361 328.64V335H120.449V328.52C120.473 325.376 118.721 323.504 115.937 323.504ZM137.708 335.288C142.412 335.288 145.532 332.504 145.532 326.72H138.332V328.616H143.132C143.132 331.256 140.684 333.272 137.708 333.272C134.228 333.272 131.516 330.32 131.516 326.768C131.516 323.216 134.228 320.192 137.708 320.192C139.268 320.192 140.708 320.816 141.764 321.752L143.276 320.336C141.836 319.016 139.892 318.176 137.708 318.176C133.004 318.176 129.332 322.064 129.332 326.768C129.332 331.448 133.004 335.288 137.708 335.288ZM153.424 323.504C151.936 323.504 150.856 324.368 150.28 326.336V323.792H148.168V335H150.28V330.896C150.28 327.944 151.168 325.52 153.4 325.52C153.832 325.52 154.432 325.616 155.032 325.904L155.368 323.936C155.032 323.72 154.216 323.504 153.424 323.504ZM165.906 325.544C165.162 324.224 163.578 323.504 161.898 323.504C158.73 323.504 156.306 326.072 156.306 329.384C156.306 332.816 158.874 335.288 161.802 335.288C163.602 335.288 165.162 334.352 165.906 333.008V335H167.994V323.792H165.906V325.544ZM162.114 333.32C160.05 333.32 158.418 331.52 158.418 329.384C158.418 327.272 160.05 325.472 162.09 325.472C163.962 325.472 165.906 327.08 165.906 329.384C165.906 331.664 164.106 333.32 162.114 333.32ZM177.724 323.504C176.116 323.504 174.484 324.272 173.74 325.544V323.792H171.652V340.448H173.74V333.248C174.484 334.568 176.068 335.288 177.748 335.288C180.82 335.288 183.34 332.96 183.34 329.408C183.34 325.88 180.796 323.504 177.724 323.504ZM177.532 333.32C175.708 333.32 173.74 331.856 173.74 329.432C173.74 327.032 175.54 325.472 177.532 325.472C179.596 325.472 181.228 327.2 181.228 329.432C181.228 331.688 179.596 333.32 177.532 333.32ZM192.062 323.504C190.838 323.504 189.014 324.128 188.342 325.496V317.696H186.254V335H188.342V328.928C188.342 326.504 190.214 325.568 191.774 325.568C193.334 325.568 194.486 326.768 194.486 328.64V335H196.574V328.52C196.598 325.376 194.846 323.504 192.062 323.504ZM201.09 321.056C201.906 321.056 202.578 320.456 202.578 319.664C202.578 318.872 201.906 318.272 201.09 318.272C200.298 318.272 199.626 318.872 199.626 319.664C199.626 320.456 200.298 321.056 201.09 321.056ZM202.146 335V323.792H200.058V335H202.146ZM211.009 335.288C212.761 335.288 214.297 334.616 215.281 333.512L213.961 332.144C213.265 332.864 212.257 333.32 211.081 333.32C208.873 333.32 207.097 331.688 207.097 329.384C207.097 327.08 208.873 325.472 211.081 325.472C212.257 325.472 213.265 325.928 213.961 326.648L215.281 325.28C214.297 324.2 212.761 323.504 211.009 323.504C207.793 323.504 204.985 325.832 204.985 329.384C204.985 332.936 207.793 335.288 211.009 335.288ZM221.206 335.288C223.534 335.288 225.55 333.968 225.55 331.88C225.55 330.608 224.95 329.216 222.622 328.64L220.966 328.232C220.246 328.064 219.526 327.656 219.526 326.888C219.526 326.024 220.246 325.328 221.326 325.328C222.214 325.328 223.102 325.904 223.126 326.768H225.142C225.142 324.512 223.174 323.504 221.278 323.504C219.022 323.504 217.438 324.968 217.438 326.816C217.438 328.616 218.518 329.528 220.39 330.032L221.926 330.392C222.814 330.584 223.462 331.016 223.462 331.856C223.462 332.768 222.622 333.464 221.206 333.464C219.838 333.464 218.998 332.672 218.974 331.712H217.03C217.126 334.016 219.19 335.288 221.206 335.288ZM55.896 363.192C57.456 362.592 57.984 361.128 57.984 359.688C57.984 357.096 56.256 355.464 53.52 355.464H47.304V372H54.048C57.072 372 58.872 369.72 58.872 367.344C58.872 365.544 57.84 363.624 55.896 363.192ZM55.8 359.904C55.8 361.32 55.056 362.352 53.568 362.352H49.488V357.48H53.496C55.008 357.48 55.8 358.488 55.8 359.904ZM49.488 369.984V364.272H53.712C55.728 364.272 56.688 365.664 56.688 367.152C56.688 368.688 55.632 369.984 53.592 369.984H49.488ZM67.0566 360.504C65.5686 360.504 64.4886 361.368 63.9126 363.336V360.792H61.8006V372H63.9126V367.896C63.9126 364.944 64.8006 362.52 67.0326 362.52C67.4646 362.52 68.0646 362.616 68.6646 362.904L69.0006 360.936C68.6646 360.72 67.8486 360.504 67.0566 360.504ZM79.5388 362.544C78.7948 361.224 77.2108 360.504 75.5308 360.504C72.3628 360.504 69.9388 363.072 69.9388 366.384C69.9388 369.816 72.5068 372.288 75.4348 372.288C77.2348 372.288 78.7948 371.352 79.5388 370.008V372H81.6268V360.792H79.5388V362.544ZM75.7468 370.32C73.6828 370.32 72.0508 368.52 72.0508 366.384C72.0508 364.272 73.6828 362.472 75.7228 362.472C77.5948 362.472 79.5388 364.08 79.5388 366.384C79.5388 368.664 77.7388 370.32 75.7468 370.32ZM91.0929 360.504C89.8689 360.504 88.0449 361.128 87.3729 362.496V360.792H85.2849V372H87.3729V365.928C87.3729 363.504 89.2449 362.568 90.8049 362.568C92.3649 362.568 93.5169 363.768 93.5169 365.64V372H95.6049V365.52C95.6289 362.376 93.8769 360.504 91.0929 360.504ZM107.946 362.544C107.202 361.224 105.618 360.504 103.938 360.504C100.866 360.504 98.3456 362.832 98.3456 366.384C98.3456 369.912 100.89 372.288 103.962 372.288C105.57 372.288 107.202 371.52 107.946 370.248V372H110.034V354.696H107.946V362.544ZM104.13 370.32C102.09 370.32 100.458 368.592 100.458 366.36C100.458 364.104 102.09 362.472 104.13 362.472C105.978 362.472 107.946 363.936 107.946 366.36C107.946 368.76 106.146 370.32 104.13 370.32ZM114.723 358.056C115.539 358.056 116.211 357.456 116.211 356.664C116.211 355.872 115.539 355.272 114.723 355.272C113.931 355.272 113.259 355.872 113.259 356.664C113.259 357.456 113.931 358.056 114.723 358.056ZM115.779 372V360.792H113.691V372H115.779ZM125.218 360.504C123.994 360.504 122.17 361.128 121.498 362.496V360.792H119.41V372H121.498V365.928C121.498 363.504 123.37 362.568 124.93 362.568C126.49 362.568 127.642 363.768 127.642 365.64V372H129.73V365.52C129.754 362.376 128.002 360.504 125.218 360.504ZM142.071 362.544C141.327 361.248 139.743 360.504 138.063 360.504C134.991 360.504 132.471 362.832 132.471 366.384C132.471 369.912 135.015 372.288 138.087 372.288C139.695 372.288 141.327 371.52 142.071 370.248V370.584C142.071 374.376 140.535 375.768 138.063 375.768C136.815 375.768 135.495 375.072 134.799 373.8L133.023 374.736C134.127 376.704 136.023 377.736 138.063 377.736C141.759 377.736 144.159 375.744 144.159 370.44V360.792H142.071V362.544ZM138.255 370.32C136.215 370.32 134.583 368.592 134.583 366.36C134.583 364.104 136.215 362.472 138.255 362.472C140.103 362.472 142.071 363.936 142.071 366.36C142.071 368.76 140.271 370.32 138.255 370.32Z" fill="black"/>
<path d="M55.548 68.432C60.228 68.432 64.44 65.732 64.44 60.8C64.44 56.588 61.164 54.68 57.42 53.564L54.648 52.772C52.056 52.016 51.876 50.756 51.876 50.144C51.876 48.488 53.352 47.192 55.296 47.192C57.456 47.192 58.68 48.56 58.68 50.324H63.684C63.684 45.608 60.084 42.764 55.404 42.764C50.652 42.764 46.836 45.824 46.836 50.252C46.836 52.484 47.808 55.76 53.244 57.2L56.268 58.064C58.392 58.712 59.4 59.684 59.4 61.052C59.4 62.816 57.924 64.04 55.692 64.04C53.388 64.04 51.66 62.564 51.624 60.8H46.62C46.62 65.156 50.256 68.432 55.548 68.432ZM76.6485 58.604L83.2005 51.188H77.1525L72.9045 56.336V42.044H68.1885V68H72.9045V60.728L78.8085 68H84.6765L76.6485 58.604ZM89.0207 48.236C90.6767 48.236 92.0087 46.976 92.0087 45.392C92.0087 43.808 90.6767 42.584 89.0207 42.584C87.4007 42.584 86.0327 43.808 86.0327 45.392C86.0327 46.976 87.4007 48.236 89.0207 48.236ZM91.3967 68V51.188H86.6807V68H91.3967ZM100.854 68V42.044H96.1377V68H100.854ZM110.311 68V42.044H105.595V68H110.311ZM120.992 68.432C124.448 68.432 128.048 66.596 128.048 63.068C128.048 61.7 127.544 59.18 123.512 58.1L120.74 57.38C119.804 57.128 119.084 56.732 119.084 55.94C119.084 55.076 119.948 54.464 121.028 54.464C122.144 54.464 123.08 55.076 123.08 56.228H127.58C127.616 52.232 124.016 50.756 120.956 50.756C117.068 50.756 114.368 53.204 114.368 55.796C114.368 57.56 114.944 59.972 119.264 61.124L121.496 61.664C122.756 61.988 123.332 62.348 123.332 63.068C123.332 64.04 122.288 64.724 120.92 64.724C119.264 64.724 118.436 63.68 118.436 62.708H114.008C114.044 66.416 117.464 68.432 120.992 68.432Z" fill="#FF4E37"/>
<g filter="url(#filter1_d_372_996)">
<rect x="568" width="321" height="415" rx="16" fill="white"/>
</g>
<path d="M620.928 96.0499H611.304V112.586H613.488V105.482H619.392V103.442H613.488V98.0659H620.928V96.0499ZM624.629 98.6419C625.445 98.6419 626.117 98.0419 626.117 97.2499C626.117 96.4579 625.445 95.8579 624.629 95.8579C623.837 95.8579 623.165 96.4579 623.165 97.2499C623.165 98.0419 623.837 98.6419 624.629 98.6419ZM625.685 112.586V101.378H623.597V112.586H625.685ZM638.172 103.13C637.428 101.834 635.844 101.09 634.164 101.09C631.092 101.09 628.572 103.418 628.572 106.97C628.572 110.498 631.116 112.874 634.188 112.874C635.796 112.874 637.428 112.106 638.172 110.834V111.17C638.172 114.962 636.636 116.354 634.164 116.354C632.916 116.354 631.596 115.658 630.9 114.386L629.124 115.322C630.228 117.29 632.124 118.322 634.164 118.322C637.86 118.322 640.26 116.33 640.26 111.026V101.378H638.172V103.13ZM634.356 110.906C632.316 110.906 630.684 109.178 630.684 106.946C630.684 104.69 632.316 103.058 634.356 103.058C636.204 103.058 638.172 104.522 638.172 106.946C638.172 109.346 636.372 110.906 634.356 110.906ZM657.214 101.09C656.086 101.09 654.334 101.474 653.302 103.49C652.654 101.954 651.238 101.09 649.606 101.09C648.022 101.09 646.558 101.882 646.006 103.106V101.378H643.918V112.586H646.006V106.514C646.006 104.138 647.59 103.106 649.174 103.106C650.662 103.106 651.694 104.33 651.694 106.226V112.586H653.782V106.97C653.782 104.474 654.814 103.082 656.806 103.106C658.438 103.106 659.47 104.354 659.47 106.226V112.586H661.558V106.106C661.558 102.962 660.022 101.09 657.214 101.09ZM673.867 103.13C673.123 101.81 671.539 101.09 669.859 101.09C666.691 101.09 664.267 103.658 664.267 106.97C664.267 110.402 666.835 112.874 669.763 112.874C671.563 112.874 673.123 111.938 673.867 110.594V112.586H675.955V101.378H673.867V103.13ZM670.075 110.906C668.011 110.906 666.379 109.106 666.379 106.97C666.379 104.858 668.011 103.058 670.051 103.058C671.923 103.058 673.867 104.666 673.867 106.97C673.867 109.25 672.067 110.906 670.075 110.906ZM613.488 149.586V133.05H611.304V149.586H613.488ZM623.265 138.09C622.041 138.09 620.217 138.714 619.545 140.082V138.378H617.457V149.586H619.545V143.514C619.545 141.09 621.417 140.154 622.977 140.154C624.537 140.154 625.689 141.354 625.689 143.226V149.586H627.777V143.106C627.801 139.962 626.049 138.09 623.265 138.09ZM635.125 145.938L631.333 133.05H629.101L634.093 149.586H636.181L641.149 133.05H638.917L635.125 145.938ZM644.645 135.642C645.461 135.642 646.133 135.042 646.133 134.25C646.133 133.458 645.461 132.858 644.645 132.858C643.853 132.858 643.181 133.458 643.181 134.25C643.181 135.042 643.853 135.642 644.645 135.642ZM645.701 149.586V138.378H643.613V149.586H645.701ZM652.62 149.874C654.948 149.874 656.964 148.554 656.964 146.466C656.964 145.194 656.364 143.802 654.036 143.226L652.38 142.818C651.66 142.65 650.94 142.242 650.94 141.474C650.94 140.61 651.66 139.914 652.74 139.914C653.628 139.914 654.516 140.49 654.54 141.354H656.556C656.556 139.098 654.588 138.09 652.692 138.09C650.436 138.09 648.852 139.554 648.852 141.402C648.852 143.202 649.932 144.114 651.804 144.618L653.34 144.978C654.228 145.17 654.876 145.602 654.876 146.442C654.876 147.354 654.036 148.05 652.62 148.05C651.252 148.05 650.412 147.258 650.388 146.298H648.444C648.54 148.602 650.604 149.874 652.62 149.874ZM660.794 135.642C661.61 135.642 662.282 135.042 662.282 134.25C662.282 133.458 661.61 132.858 660.794 132.858C660.002 132.858 659.33 133.458 659.33 134.25C659.33 135.042 660.002 135.642 660.794 135.642ZM661.85 149.586V138.378H659.762V149.586H661.85ZM670.568 149.874C673.76 149.874 676.448 147.522 676.448 143.97C676.448 140.418 673.76 138.09 670.568 138.09C667.376 138.09 664.712 140.418 664.712 143.97C664.712 147.522 667.376 149.874 670.568 149.874ZM670.568 147.906C668.528 147.906 666.824 146.298 666.824 143.97C666.824 141.666 668.528 140.058 670.568 140.058C672.632 140.058 674.36 141.666 674.36 143.97C674.36 146.298 672.632 147.906 670.568 147.906ZM685.163 138.09C683.939 138.09 682.115 138.714 681.443 140.082V138.378H679.355V149.586H681.443V143.514C681.443 141.09 683.315 140.154 684.875 140.154C686.435 140.154 687.587 141.354 687.587 143.226V149.586H689.675V143.106C689.699 139.962 687.947 138.09 685.163 138.09ZM623.952 186.586L617.664 170.05H615.36L609.072 186.586H611.352L612.96 182.338H620.064L621.672 186.586H623.952ZM616.512 172.906L619.344 180.418H613.68L616.512 172.906ZM634.68 177.13C633.936 175.81 632.352 175.09 630.672 175.09C627.6 175.09 625.08 177.418 625.08 180.97C625.08 184.498 627.624 186.874 630.696 186.874C632.304 186.874 633.936 186.106 634.68 184.834V186.586H636.768V169.282H634.68V177.13ZM630.864 184.906C628.824 184.906 627.192 183.178 627.192 180.946C627.192 178.69 628.824 177.058 630.864 177.058C632.712 177.058 634.68 178.522 634.68 180.946C634.68 183.346 632.88 184.906 630.864 184.906ZM645.514 186.874C648.706 186.874 651.394 184.522 651.394 180.97C651.394 177.418 648.706 175.09 645.514 175.09C642.322 175.09 639.658 177.418 639.658 180.97C639.658 184.522 642.322 186.874 645.514 186.874ZM645.514 184.906C643.474 184.906 641.77 183.298 641.77 180.97C641.77 178.666 643.474 177.058 645.514 177.058C647.578 177.058 649.306 178.666 649.306 180.97C649.306 183.298 647.578 184.906 645.514 184.906ZM660.397 175.09C658.717 175.09 657.133 175.81 656.389 177.13V169.282H654.301V186.586H656.389V184.834C657.133 186.106 658.765 186.874 660.373 186.874C663.445 186.874 665.989 184.498 665.989 180.97C665.989 177.418 663.469 175.09 660.397 175.09ZM660.181 184.906C658.189 184.906 656.389 183.346 656.389 180.946C656.389 178.522 658.357 177.058 660.181 177.058C662.245 177.058 663.877 178.69 663.877 180.946C663.877 183.178 662.245 184.906 660.181 184.906ZM679.486 180.946C679.486 177.394 677.11 175.09 673.918 175.09C670.726 175.09 668.158 177.394 668.158 180.946C668.158 184.498 670.726 186.874 673.918 186.874C676.078 186.874 678.094 185.818 679.054 183.874L677.254 183.154C676.606 184.282 675.358 184.906 673.99 184.906C672.07 184.906 670.63 183.874 670.318 181.882H679.438C679.462 181.57 679.486 181.258 679.486 180.946ZM670.342 180.082C670.678 178.066 672.022 177.058 673.918 177.058C675.766 177.058 677.134 178.162 677.398 180.082H670.342ZM694.771 177.706L699.931 170.05H697.339L693.475 175.93L689.635 170.05H687.043L692.179 177.682L686.395 186.586H688.987L693.475 179.482L697.963 186.586H700.579L694.771 177.706ZM703.085 170.05V186.586H709.493C714.197 186.586 716.957 183.034 716.957 178.354C716.957 173.65 714.197 170.05 709.493 170.05H703.085ZM705.269 184.57V172.066H709.493C712.973 172.066 714.773 174.826 714.773 178.354C714.773 181.882 712.973 184.57 709.493 184.57H705.269ZM623.952 223.586L617.664 207.05H615.36L609.072 223.586H611.352L612.96 219.338H620.064L621.672 223.586H623.952ZM616.512 209.906L619.344 217.418H613.68L616.512 209.906ZM634.68 214.13C633.936 212.81 632.352 212.09 630.672 212.09C627.6 212.09 625.08 214.418 625.08 217.97C625.08 221.498 627.624 223.874 630.696 223.874C632.304 223.874 633.936 223.106 634.68 221.834V223.586H636.768V206.282H634.68V214.13ZM630.864 221.906C628.824 221.906 627.192 220.178 627.192 217.946C627.192 215.69 628.824 214.058 630.864 214.058C632.712 214.058 634.68 215.522 634.68 217.946C634.68 220.346 632.88 221.906 630.864 221.906ZM645.514 223.874C648.706 223.874 651.394 221.522 651.394 217.97C651.394 214.418 648.706 212.09 645.514 212.09C642.322 212.09 639.658 214.418 639.658 217.97C639.658 221.522 642.322 223.874 645.514 223.874ZM645.514 221.906C643.474 221.906 641.77 220.298 641.77 217.97C641.77 215.666 643.474 214.058 645.514 214.058C647.578 214.058 649.306 215.666 649.306 217.97C649.306 220.298 647.578 221.906 645.514 221.906ZM660.397 212.09C658.717 212.09 657.133 212.81 656.389 214.13V206.282H654.301V223.586H656.389V221.834C657.133 223.106 658.765 223.874 660.373 223.874C663.445 223.874 665.989 221.498 665.989 217.97C665.989 214.418 663.469 212.09 660.397 212.09ZM660.181 221.906C658.189 221.906 656.389 220.346 656.389 217.946C656.389 215.522 658.357 214.058 660.181 214.058C662.245 214.058 663.877 215.69 663.877 217.946C663.877 220.178 662.245 221.906 660.181 221.906ZM679.486 217.946C679.486 214.394 677.11 212.09 673.918 212.09C670.726 212.09 668.158 214.394 668.158 217.946C668.158 221.498 670.726 223.874 673.918 223.874C676.078 223.874 678.094 222.818 679.054 220.874L677.254 220.154C676.606 221.282 675.358 221.906 673.99 221.906C672.07 221.906 670.63 220.874 670.318 218.882H679.438C679.462 218.57 679.486 218.258 679.486 217.946ZM670.342 217.082C670.678 215.066 672.022 214.058 673.918 214.058C675.766 214.058 677.134 215.162 677.398 217.082H670.342ZM691.066 223.586V207.05H688.882V223.586H691.066ZM697.123 223.586V206.282H695.035V223.586H697.123ZM702.842 223.586V206.282H700.754V223.586H702.842ZM714.56 218.546C714.536 220.97 712.664 221.906 711.104 221.906C709.544 221.906 708.416 220.706 708.416 218.81V212.378H706.328V218.858C706.304 222.002 708.032 223.874 710.84 223.874C712.088 223.874 713.888 223.25 714.56 221.834V223.586H716.648V212.378H714.56V218.546ZM723.565 223.874C725.893 223.874 727.909 222.554 727.909 220.466C727.909 219.194 727.309 217.802 724.981 217.226L723.325 216.818C722.605 216.65 721.885 216.242 721.885 215.474C721.885 214.61 722.605 213.914 723.685 213.914C724.573 213.914 725.461 214.49 725.485 215.354H727.501C727.501 213.098 725.533 212.09 723.637 212.09C721.381 212.09 719.797 213.554 719.797 215.402C719.797 217.202 720.877 218.114 722.749 218.618L724.285 218.978C725.173 219.17 725.821 219.602 725.821 220.442C725.821 221.354 724.981 222.05 723.565 222.05C722.197 222.05 721.357 221.258 721.333 220.298H719.389C719.485 222.602 721.549 223.874 723.565 223.874ZM733.659 212.378V208.154H731.571V212.378H729.555V214.178H731.571V223.586H733.659V214.178H736.083V212.378H733.659ZM743.674 212.09C742.186 212.09 741.106 212.954 740.53 214.922V212.378H738.418V223.586H740.53V219.482C740.53 216.53 741.418 214.106 743.65 214.106C744.082 214.106 744.682 214.202 745.282 214.49L745.618 212.522C745.282 212.306 744.466 212.09 743.674 212.09ZM756.156 214.13C755.412 212.81 753.828 212.09 752.148 212.09C748.98 212.09 746.556 214.658 746.556 217.97C746.556 221.402 749.124 223.874 752.052 223.874C753.852 223.874 755.412 222.938 756.156 221.594V223.586H758.244V212.378H756.156V214.13ZM752.364 221.906C750.3 221.906 748.668 220.106 748.668 217.97C748.668 215.858 750.3 214.058 752.34 214.058C754.212 214.058 756.156 215.666 756.156 217.97C756.156 220.25 754.356 221.906 752.364 221.906ZM764.854 212.378V208.154H762.766V212.378H760.75V214.178H762.766V223.586H764.854V214.178H767.278V212.378H764.854ZM774.467 223.874C777.659 223.874 780.347 221.522 780.347 217.97C780.347 214.418 777.659 212.09 774.467 212.09C771.275 212.09 768.611 214.418 768.611 217.97C768.611 221.522 771.275 223.874 774.467 223.874ZM774.467 221.906C772.427 221.906 770.723 220.298 770.723 217.97C770.723 215.666 772.427 214.058 774.467 214.058C776.531 214.058 778.259 215.666 778.259 217.97C778.259 220.298 776.531 221.906 774.467 221.906ZM788.51 212.09C787.022 212.09 785.942 212.954 785.366 214.922V212.378H783.254V223.586H785.366V219.482C785.366 216.53 786.254 214.106 788.486 214.106C788.918 214.106 789.518 214.202 790.118 214.49L790.454 212.522C790.118 212.306 789.302 212.09 788.51 212.09ZM623.952 260.586L617.664 244.05H615.36L609.072 260.586H611.352L612.96 256.338H620.064L621.672 260.586H623.952ZM616.512 246.906L619.344 254.418H613.68L616.512 246.906ZM634.68 251.13C633.936 249.81 632.352 249.09 630.672 249.09C627.6 249.09 625.08 251.418 625.08 254.97C625.08 258.498 627.624 260.874 630.696 260.874C632.304 260.874 633.936 260.106 634.68 258.834V260.586H636.768V243.282H634.68V251.13ZM630.864 258.906C628.824 258.906 627.192 257.178 627.192 254.946C627.192 252.69 628.824 251.058 630.864 251.058C632.712 251.058 634.68 252.522 634.68 254.946C634.68 257.346 632.88 258.906 630.864 258.906ZM645.514 260.874C648.706 260.874 651.394 258.522 651.394 254.97C651.394 251.418 648.706 249.09 645.514 249.09C642.322 249.09 639.658 251.418 639.658 254.97C639.658 258.522 642.322 260.874 645.514 260.874ZM645.514 258.906C643.474 258.906 641.77 257.298 641.77 254.97C641.77 252.666 643.474 251.058 645.514 251.058C647.578 251.058 649.306 252.666 649.306 254.97C649.306 257.298 647.578 258.906 645.514 258.906ZM660.397 249.09C658.717 249.09 657.133 249.81 656.389 251.13V243.282H654.301V260.586H656.389V258.834C657.133 260.106 658.765 260.874 660.373 260.874C663.445 260.874 665.989 258.498 665.989 254.97C665.989 251.418 663.469 249.09 660.397 249.09ZM660.181 258.906C658.189 258.906 656.389 257.346 656.389 254.946C656.389 252.522 658.357 251.058 660.181 251.058C662.245 251.058 663.877 252.69 663.877 254.946C663.877 257.178 662.245 258.906 660.181 258.906ZM679.486 254.946C679.486 251.394 677.11 249.09 673.918 249.09C670.726 249.09 668.158 251.394 668.158 254.946C668.158 258.498 670.726 260.874 673.918 260.874C676.078 260.874 678.094 259.818 679.054 257.874L677.254 257.154C676.606 258.282 675.358 258.906 673.99 258.906C672.07 258.906 670.63 257.874 670.318 255.882H679.438C679.462 255.57 679.486 255.258 679.486 254.946ZM670.342 254.082C670.678 252.066 672.022 251.058 673.918 251.058C675.766 251.058 677.134 252.162 677.398 254.082H670.342ZM688.882 244.05V260.586H691.066V254.37H695.458C698.962 254.37 700.378 251.826 700.378 249.21C700.378 246.642 698.962 244.05 695.458 244.05H688.882ZM691.066 252.33V246.066H695.434C697.402 246.066 698.194 247.674 698.194 249.21C698.194 250.794 697.378 252.33 695.314 252.33H691.066ZM708.859 249.09C707.635 249.09 705.811 249.714 705.139 251.082V243.282H703.051V260.586H705.139V254.514C705.139 252.09 707.011 251.154 708.571 251.154C710.131 251.154 711.283 252.354 711.283 254.226V260.586H713.371V254.106C713.395 250.962 711.643 249.09 708.859 249.09ZM721.943 260.874C725.135 260.874 727.823 258.522 727.823 254.97C727.823 251.418 725.135 249.09 721.943 249.09C718.751 249.09 716.087 251.418 716.087 254.97C716.087 258.522 718.751 260.874 721.943 260.874ZM721.943 258.906C719.903 258.906 718.199 257.298 718.199 254.97C718.199 252.666 719.903 251.058 721.943 251.058C724.007 251.058 725.735 252.666 725.735 254.97C725.735 257.298 724.007 258.906 721.943 258.906ZM733.471 249.378V245.154H731.383V249.378H729.367V251.178H731.383V260.586H733.471V251.178H735.895V249.378H733.471ZM743.084 260.874C746.276 260.874 748.964 258.522 748.964 254.97C748.964 251.418 746.276 249.09 743.084 249.09C739.892 249.09 737.228 251.418 737.228 254.97C737.228 258.522 739.892 260.874 743.084 260.874ZM743.084 258.906C741.044 258.906 739.34 257.298 739.34 254.97C739.34 252.666 741.044 251.058 743.084 251.058C745.148 251.058 746.876 252.666 746.876 254.97C746.876 257.298 745.148 258.906 743.084 258.906ZM755.159 260.874C757.487 260.874 759.503 259.554 759.503 257.466C759.503 256.194 758.903 254.802 756.575 254.226L754.919 253.818C754.199 253.65 753.479 253.242 753.479 252.474C753.479 251.61 754.199 250.914 755.279 250.914C756.167 250.914 757.055 251.49 757.079 252.354H759.095C759.095 250.098 757.127 249.09 755.231 249.09C752.975 249.09 751.391 250.554 751.391 252.402C751.391 254.202 752.471 255.114 754.343 255.618L755.879 255.978C756.767 256.17 757.415 256.602 757.415 257.442C757.415 258.354 756.575 259.05 755.159 259.05C753.791 259.05 752.951 258.258 752.927 257.298H750.983C751.079 259.602 753.143 260.874 755.159 260.874ZM768.109 249.09C766.885 249.09 765.061 249.714 764.389 251.082V243.282H762.301V260.586H764.389V254.514C764.389 252.09 766.261 251.154 767.821 251.154C769.381 251.154 770.533 252.354 770.533 254.226V260.586H772.621V254.106C772.645 250.962 770.893 249.09 768.109 249.09ZM781.193 260.874C784.385 260.874 787.073 258.522 787.073 254.97C787.073 251.418 784.385 249.09 781.193 249.09C778.001 249.09 775.337 251.418 775.337 254.97C775.337 258.522 778.001 260.874 781.193 260.874ZM781.193 258.906C779.153 258.906 777.449 257.298 777.449 254.97C777.449 252.666 779.153 251.058 781.193 251.058C783.257 251.058 784.985 252.666 784.985 254.97C784.985 257.298 783.257 258.906 781.193 258.906ZM796.052 249.09C794.444 249.09 792.812 249.858 792.068 251.13V249.378H789.98V266.034H792.068V258.834C792.812 260.154 794.396 260.874 796.076 260.874C799.148 260.874 801.668 258.546 801.668 254.994C801.668 251.466 799.124 249.09 796.052 249.09ZM795.86 258.906C794.036 258.906 792.068 257.442 792.068 255.018C792.068 252.618 793.868 251.058 795.86 251.058C797.924 251.058 799.556 252.786 799.556 255.018C799.556 257.274 797.924 258.906 795.86 258.906ZM623.952 297.586L617.664 281.05H615.36L609.072 297.586H611.352L612.96 293.338H620.064L621.672 297.586H623.952ZM616.512 283.906L619.344 291.418H613.68L616.512 283.906ZM634.68 288.13C633.936 286.81 632.352 286.09 630.672 286.09C627.6 286.09 625.08 288.418 625.08 291.97C625.08 295.498 627.624 297.874 630.696 297.874C632.304 297.874 633.936 297.106 634.68 295.834V297.586H636.768V280.282H634.68V288.13ZM630.864 295.906C628.824 295.906 627.192 294.178 627.192 291.946C627.192 289.69 628.824 288.058 630.864 288.058C632.712 288.058 634.68 289.522 634.68 291.946C634.68 294.346 632.88 295.906 630.864 295.906ZM645.514 297.874C648.706 297.874 651.394 295.522 651.394 291.97C651.394 288.418 648.706 286.09 645.514 286.09C642.322 286.09 639.658 288.418 639.658 291.97C639.658 295.522 642.322 297.874 645.514 297.874ZM645.514 295.906C643.474 295.906 641.77 294.298 641.77 291.97C641.77 289.666 643.474 288.058 645.514 288.058C647.578 288.058 649.306 289.666 649.306 291.97C649.306 294.298 647.578 295.906 645.514 295.906ZM660.397 286.09C658.717 286.09 657.133 286.81 656.389 288.13V280.282H654.301V297.586H656.389V295.834C657.133 297.106 658.765 297.874 660.373 297.874C663.445 297.874 665.989 295.498 665.989 291.97C665.989 288.418 663.469 286.09 660.397 286.09ZM660.181 295.906C658.189 295.906 656.389 294.346 656.389 291.946C656.389 289.522 658.357 288.058 660.181 288.058C662.245 288.058 663.877 289.69 663.877 291.946C663.877 294.178 662.245 295.906 660.181 295.906ZM679.486 291.946C679.486 288.394 677.11 286.09 673.918 286.09C670.726 286.09 668.158 288.394 668.158 291.946C668.158 295.498 670.726 297.874 673.918 297.874C676.078 297.874 678.094 296.818 679.054 294.874L677.254 294.154C676.606 295.282 675.358 295.906 673.99 295.906C672.07 295.906 670.63 294.874 670.318 292.882H679.438C679.462 292.57 679.486 292.258 679.486 291.946ZM670.342 291.082C670.678 289.066 672.022 288.058 673.918 288.058C675.766 288.058 677.134 289.162 677.398 291.082H670.342ZM700.921 297.586L694.633 281.05H692.329L686.041 297.586H688.321L689.929 293.338H697.033L698.641 297.586H700.921ZM693.481 283.906L696.313 291.418H690.649L693.481 283.906ZM708.894 282.25V280.282H707.694C704.694 280.282 703.47 282.298 703.47 285.226V286.378H701.31V288.178H703.47V297.586H705.558V288.178H708.174V286.378H705.558V284.938C705.534 283.474 706.062 282.25 708.054 282.25H708.894ZM713.409 286.378V282.154H711.321V286.378H709.305V288.178H711.321V297.586H713.409V288.178H715.833V286.378H713.409ZM728.517 291.946C728.517 288.394 726.141 286.09 722.949 286.09C719.757 286.09 717.189 288.394 717.189 291.946C717.189 295.498 719.757 297.874 722.949 297.874C725.109 297.874 727.125 296.818 728.085 294.874L726.285 294.154C725.637 295.282 724.389 295.906 723.021 295.906C721.101 295.906 719.661 294.874 719.349 292.882H728.469C728.493 292.57 728.517 292.258 728.517 291.946ZM719.373 291.082C719.709 289.066 721.053 288.058 722.949 288.058C724.797 288.058 726.165 289.162 726.429 291.082H719.373ZM736.619 286.09C735.131 286.09 734.051 286.954 733.475 288.922V286.378H731.363V297.586H733.475V293.482C733.475 290.53 734.363 288.106 736.595 288.106C737.027 288.106 737.627 288.202 738.227 288.49L738.563 286.522C738.227 286.306 737.411 286.09 736.619 286.09ZM748.722 290.482H755.346V288.442H748.722V283.066H756.306V281.05H746.562V297.586H756.546V295.57H748.722V290.482ZM773.915 282.25V280.282H772.715C769.691 280.282 768.491 282.298 768.491 285.226V286.378H762.371V284.938C762.347 283.474 762.875 282.25 764.867 282.25H765.707V280.282H764.507C761.507 280.282 760.283 282.298 760.283 285.226V286.378H758.123V288.178H760.283V297.586H762.371V288.178H768.491V297.586H770.579V288.178H773.195V286.378H770.579V284.938C770.555 283.474 771.059 282.25 773.075 282.25H773.915ZM785.822 291.946C785.822 288.394 783.446 286.09 780.254 286.09C777.062 286.09 774.494 288.394 774.494 291.946C774.494 295.498 777.062 297.874 780.254 297.874C782.414 297.874 784.43 296.818 785.39 294.874L783.59 294.154C782.942 295.282 781.694 295.906 780.326 295.906C778.406 295.906 776.966 294.874 776.654 292.882H785.774C785.798 292.57 785.822 292.258 785.822 291.946ZM776.678 291.082C777.014 289.066 778.358 288.058 780.254 288.058C782.102 288.058 783.47 289.162 783.734 291.082H776.678ZM793.9 297.874C795.652 297.874 797.188 297.202 798.172 296.098L796.852 294.73C796.156 295.45 795.148 295.906 793.972 295.906C791.764 295.906 789.988 294.274 789.988 291.97C789.988 289.666 791.764 288.058 793.972 288.058C795.148 288.058 796.156 288.514 796.852 289.234L798.172 287.866C797.188 286.786 795.652 286.09 793.9 286.09C790.684 286.09 787.876 288.418 787.876 291.97C787.876 295.522 790.684 297.874 793.9 297.874ZM803.76 286.378V282.154H801.672V286.378H799.656V288.178H801.672V297.586H803.76V288.178H806.184V286.378H803.76ZM811.714 297.874C814.042 297.874 816.058 296.554 816.058 294.466C816.058 293.194 815.458 291.802 813.13 291.226L811.474 290.818C810.754 290.65 810.034 290.242 810.034 289.474C810.034 288.61 810.754 287.914 811.834 287.914C812.722 287.914 813.61 288.49 813.634 289.354H815.65C815.65 287.098 813.682 286.09 811.786 286.09C809.53 286.09 807.946 287.554 807.946 289.402C807.946 291.202 809.026 292.114 810.898 292.618L812.434 292.978C813.322 293.17 813.97 293.602 813.97 294.442C813.97 295.354 813.13 296.05 811.714 296.05C810.346 296.05 809.506 295.258 809.482 294.298H807.538C807.634 296.602 809.698 297.874 811.714 297.874ZM623.952 334.586L617.664 318.05H615.36L609.072 334.586H611.352L612.96 330.338H620.064L621.672 334.586H623.952ZM616.512 320.906L619.344 328.418H613.68L616.512 320.906ZM634.68 325.13C633.936 323.81 632.352 323.09 630.672 323.09C627.6 323.09 625.08 325.418 625.08 328.97C625.08 332.498 627.624 334.874 630.696 334.874C632.304 334.874 633.936 334.106 634.68 332.834V334.586H636.768V317.282H634.68V325.13ZM630.864 332.906C628.824 332.906 627.192 331.178 627.192 328.946C627.192 326.69 628.824 325.058 630.864 325.058C632.712 325.058 634.68 326.522 634.68 328.946C634.68 331.346 632.88 332.906 630.864 332.906ZM645.514 334.874C648.706 334.874 651.394 332.522 651.394 328.97C651.394 325.418 648.706 323.09 645.514 323.09C642.322 323.09 639.658 325.418 639.658 328.97C639.658 332.522 642.322 334.874 645.514 334.874ZM645.514 332.906C643.474 332.906 641.77 331.298 641.77 328.97C641.77 326.666 643.474 325.058 645.514 325.058C647.578 325.058 649.306 326.666 649.306 328.97C649.306 331.298 647.578 332.906 645.514 332.906ZM660.397 323.09C658.717 323.09 657.133 323.81 656.389 325.13V317.282H654.301V334.586H656.389V332.834C657.133 334.106 658.765 334.874 660.373 334.874C663.445 334.874 665.989 332.498 665.989 328.97C665.989 325.418 663.469 323.09 660.397 323.09ZM660.181 332.906C658.189 332.906 656.389 331.346 656.389 328.946C656.389 326.522 658.357 325.058 660.181 325.058C662.245 325.058 663.877 326.69 663.877 328.946C663.877 331.178 662.245 332.906 660.181 332.906ZM679.486 328.946C679.486 325.394 677.11 323.09 673.918 323.09C670.726 323.09 668.158 325.394 668.158 328.946C668.158 332.498 670.726 334.874 673.918 334.874C676.078 334.874 678.094 333.818 679.054 331.874L677.254 331.154C676.606 332.282 675.358 332.906 673.99 332.906C672.07 332.906 670.63 331.874 670.318 329.882H679.438C679.462 329.57 679.486 329.258 679.486 328.946ZM670.342 328.082C670.678 326.066 672.022 325.058 673.918 325.058C675.766 325.058 677.134 326.162 677.398 328.082H670.342ZM688.882 318.05V334.586H691.066V328.37H695.458C698.962 328.37 700.378 325.826 700.378 323.21C700.378 320.642 698.962 318.05 695.458 318.05H688.882ZM691.066 326.33V320.066H695.434C697.402 320.066 698.194 321.674 698.194 323.21C698.194 324.794 697.378 326.33 695.314 326.33H691.066ZM708.143 323.09C706.655 323.09 705.575 323.954 704.999 325.922V323.378H702.887V334.586H704.999V330.482C704.999 327.53 705.887 325.106 708.118 325.106C708.551 325.106 709.151 325.202 709.751 325.49L710.087 323.522C709.751 323.306 708.935 323.09 708.143 323.09ZM722.377 328.946C722.377 325.394 720.001 323.09 716.809 323.09C713.617 323.09 711.049 325.394 711.049 328.946C711.049 332.498 713.617 334.874 716.809 334.874C718.969 334.874 720.985 333.818 721.945 331.874L720.145 331.154C719.497 332.282 718.249 332.906 716.881 332.906C714.961 332.906 713.521 331.874 713.209 329.882H722.329C722.353 329.57 722.377 329.258 722.377 328.946ZM713.233 328.082C713.569 326.066 714.913 325.058 716.809 325.058C718.657 325.058 720.025 326.162 720.289 328.082H713.233ZM738.518 323.09C737.39 323.09 735.638 323.474 734.606 325.49C733.958 323.954 732.542 323.09 730.91 323.09C729.326 323.09 727.862 323.882 727.31 325.106V323.378H725.222V334.586H727.31V328.514C727.31 326.138 728.894 325.106 730.478 325.106C731.966 325.106 732.998 326.33 732.998 328.226V334.586H735.086V328.97C735.086 326.474 736.118 325.082 738.11 325.106C739.742 325.106 740.774 326.354 740.774 328.226V334.586H742.862V328.106C742.862 324.962 741.326 323.09 738.518 323.09ZM747.372 320.642C748.188 320.642 748.86 320.042 748.86 319.25C748.86 318.458 748.188 317.858 747.372 317.858C746.58 317.858 745.908 318.458 745.908 319.25C745.908 320.042 746.58 320.642 747.372 320.642ZM748.428 334.586V323.378H746.34V334.586H748.428ZM762.642 328.946C762.642 325.394 760.266 323.09 757.074 323.09C753.882 323.09 751.314 325.394 751.314 328.946C751.314 332.498 753.882 334.874 757.074 334.874C759.234 334.874 761.25 333.818 762.21 331.874L760.41 331.154C759.762 332.282 758.514 332.906 757.146 332.906C755.226 332.906 753.786 331.874 753.474 329.882H762.594C762.618 329.57 762.642 329.258 762.642 328.946ZM753.498 328.082C753.834 326.066 755.178 325.058 757.074 325.058C758.922 325.058 760.29 326.162 760.554 328.082H753.498ZM770.744 323.09C769.256 323.09 768.176 323.954 767.6 325.922V323.378H765.488V334.586H767.6V330.482C767.6 327.53 768.488 325.106 770.72 325.106C771.152 325.106 771.752 325.202 772.352 325.49L772.688 323.522C772.352 323.306 771.536 323.09 770.744 323.09ZM784.978 328.946C784.978 325.394 782.602 323.09 779.41 323.09C776.218 323.09 773.65 325.394 773.65 328.946C773.65 332.498 776.218 334.874 779.41 334.874C781.57 334.874 783.586 333.818 784.546 331.874L782.746 331.154C782.098 332.282 780.85 332.906 779.482 332.906C777.562 332.906 776.122 331.874 775.81 329.882H784.93C784.954 329.57 784.978 329.258 784.978 328.946ZM775.834 328.082C776.17 326.066 777.514 325.058 779.41 325.058C781.258 325.058 782.626 326.162 782.89 328.082H775.834ZM794.374 318.05V334.586H796.558V328.37H800.95C804.454 328.37 805.87 325.826 805.87 323.21C805.87 320.642 804.454 318.05 800.95 318.05H794.374ZM796.558 326.33V320.066H800.926C802.894 320.066 803.686 321.674 803.686 323.21C803.686 324.794 802.87 326.33 800.806 326.33H796.558ZM813.635 323.09C812.147 323.09 811.067 323.954 810.491 325.922V323.378H808.379V334.586H810.491V330.482C810.491 327.53 811.379 325.106 813.611 325.106C814.043 325.106 814.643 325.202 815.243 325.49L815.579 323.522C815.243 323.306 814.427 323.09 813.635 323.09ZM822.373 334.874C825.565 334.874 828.253 332.522 828.253 328.97C828.253 325.418 825.565 323.09 822.373 323.09C819.181 323.09 816.517 325.418 816.517 328.97C816.517 332.522 819.181 334.874 822.373 334.874ZM822.373 332.906C820.333 332.906 818.629 331.298 818.629 328.97C818.629 326.666 820.333 325.058 822.373 325.058C824.437 325.058 826.165 326.666 826.165 328.97C826.165 331.298 824.437 332.906 822.373 332.906ZM623.76 368.082L620.664 357.306H619.008L615.936 368.13L611.712 355.05H609.384L614.976 371.586H616.872L619.824 361.146L622.8 371.586H624.696L630.288 355.05H627.96L623.76 368.082ZM641.963 365.946C641.963 362.394 639.587 360.09 636.395 360.09C633.203 360.09 630.635 362.394 630.635 365.946C630.635 369.498 633.203 371.874 636.395 371.874C638.555 371.874 640.571 370.818 641.531 368.874L639.731 368.154C639.083 369.282 637.835 369.906 636.467 369.906C634.547 369.906 633.107 368.874 632.795 366.882H641.915C641.939 366.57 641.963 366.258 641.963 365.946ZM632.819 365.082C633.155 363.066 634.499 362.058 636.395 362.058C638.243 362.058 639.611 363.162 639.875 365.082H632.819ZM650.904 360.09C649.224 360.09 647.64 360.81 646.896 362.13V354.282H644.808V371.586H646.896V369.834C647.64 371.106 649.272 371.874 650.88 371.874C653.952 371.874 656.496 369.498 656.496 365.97C656.496 362.418 653.976 360.09 650.904 360.09ZM650.688 369.906C648.696 369.906 646.896 368.346 646.896 365.946C646.896 363.522 648.864 362.058 650.688 362.058C652.752 362.058 654.384 363.69 654.384 365.946C654.384 368.178 652.752 369.906 650.688 369.906ZM669.399 354.282H664.335C661.335 354.282 660.111 356.298 660.111 359.226V360.378H657.951V362.178H660.111V371.586H662.199V362.178H664.815V360.378H662.199V358.938C662.175 357.474 662.703 356.25 664.695 356.25H667.311V371.586H669.399V354.282ZM678.115 371.874C681.307 371.874 683.995 369.522 683.995 365.97C683.995 362.418 681.307 360.09 678.115 360.09C674.923 360.09 672.259 362.418 672.259 365.97C672.259 369.522 674.923 371.874 678.115 371.874ZM678.115 369.906C676.075 369.906 674.371 368.298 674.371 365.97C674.371 363.666 676.075 362.058 678.115 362.058C680.179 362.058 681.907 363.666 681.907 365.97C681.907 368.298 680.179 369.906 678.115 369.906ZM698.115 368.346L695.235 360.378H693.195L690.339 368.346L687.483 360.378H685.227L689.499 371.586H691.227L694.203 363.258L697.299 371.586H699.051L703.227 360.378H700.971L698.115 368.346Z" fill="black"/>
<path d="M609.72 43.0515V47.4795H616.56V67.8555H621.564V47.4795H628.404V43.0515H609.72ZM636.454 68.2875C641.242 68.2875 645.49 64.7595 645.49 59.4675C645.49 54.1395 641.242 50.6115 636.454 50.6115C631.666 50.6115 627.418 54.1395 627.418 59.4675C627.418 64.7595 631.666 68.2875 636.454 68.2875ZM636.454 63.8955C634.114 63.8955 632.206 62.0595 632.206 59.4675C632.206 56.8395 634.114 55.0035 636.454 55.0035C638.794 55.0035 640.702 56.8395 640.702 59.4675C640.702 62.0595 638.794 63.8955 636.454 63.8955ZM657.196 68.2875C661.984 68.2875 666.232 64.7595 666.232 59.4675C666.232 54.1395 661.984 50.6115 657.196 50.6115C652.408 50.6115 648.16 54.1395 648.16 59.4675C648.16 64.7595 652.408 68.2875 657.196 68.2875ZM657.196 63.8955C654.856 63.8955 652.948 62.0595 652.948 59.4675C652.948 56.8395 654.856 55.0035 657.196 55.0035C659.536 55.0035 661.444 56.8395 661.444 59.4675C661.444 62.0595 659.536 63.8955 657.196 63.8955ZM674.662 67.8555V41.8995H669.946V67.8555H674.662ZM685.343 68.2875C688.799 68.2875 692.399 66.4515 692.399 62.9235C692.399 61.5555 691.895 59.0355 687.863 57.9555L685.091 57.2355C684.155 56.9835 683.435 56.5875 683.435 55.7955C683.435 54.9315 684.299 54.3195 685.379 54.3195C686.495 54.3195 687.431 54.9315 687.431 56.0835H691.931C691.967 52.0875 688.367 50.6115 685.307 50.6115C681.419 50.6115 678.719 53.0595 678.719 55.6515C678.719 57.4155 679.295 59.8275 683.615 60.9795L685.847 61.5195C687.107 61.8435 687.683 62.2035 687.683 62.9235C687.683 63.8955 686.639 64.5795 685.271 64.5795C683.615 64.5795 682.787 63.5355 682.787 62.5635H678.359C678.395 66.2715 681.815 68.2875 685.343 68.2875Z" fill="#FF4E37"/>
<line x1="325" y1="207.5" x2="568" y2="207.5" stroke="#FF4E37" stroke-width="3" stroke-dasharray="6 6"/>
<defs>
<filter id="filter0_d_372_996" x="0" y="0" width="329" height="423" filterUnits="userSpaceOnUse" color-interpolation-filters="sRGB">
<feFlood flood-opacity="0" result="BackgroundImageFix"/>
<feColorMatrix in="SourceAlpha" type="matrix" values="0 0 0 0 0 0 0 0 0 0 0 0 0 0 0 0 0 0 127 0" result="hardAlpha"/>
<feOffset dy="4"/>
<feGaussianBlur stdDeviation="2"/>
<feComposite in2="hardAlpha" operator="out"/>
<feColorMatrix type="matrix" values="0 0 0 0 0 0 0 0 0 0 0 0 0 0 0 0 0 0 0.15 0"/>
<feBlend mode="normal" in2="BackgroundImageFix" result="effect1_dropShadow_372_996"/>
<feBlend mode="normal" in="SourceGraphic" in2="effect1_dropShadow_372_996" result="shape"/>
</filter>
<filter id="filter1_d_372_996" x="564" y="0" width="329" height="423" filterUnits="userSpaceOnUse" color-interpolation-filters="sRGB">
<feFlood flood-opacity="0" result="BackgroundImageFix"/>
<feColorMatrix in="SourceAlpha" type="matrix" values="0 0 0 0 0 0 0 0 0 0 0 0 0 0 0 0 0 0 127 0" result="hardAlpha"/>
<feOffset dy="4"/>
<feGaussianBlur stdDeviation="2"/>
<feComposite in2="hardAlpha" operator="out"/>
<feColorMatrix type="matrix" values="0 0 0 0 0 0 0 0 0 0 0 0 0 0 0 0 0 0 0.15 0"/>
<feBlend mode="normal" in2="BackgroundImageFix" result="effect1_dropShadow_372_996"/>
<feBlend mode="normal" in="SourceGraphic" in2="effect1_dropShadow_372_996" result="shape"/>
</filter>
</defs>
</svg>
