<svg width="33" height="31" viewBox="0 0 33 31" fill="none" xmlns="http://www.w3.org/2000/svg">
<path d="M19.9577 12.3548C19.929 12.1639 19.8717 11.9785 19.7877 11.8048C19.7858 11.7781 19.7858 11.7514 19.7877 11.7248C19.6991 11.5347 19.5772 11.362 19.4277 11.2148C18.0503 9.84386 16.186 9.07422 14.2427 9.07422C12.2993 9.07422 10.4351 9.84386 9.05771 11.2148L2.14771 18.1248C0.772558 19.4999 0 21.365 0 23.3098C0 25.2545 0.772558 27.1196 2.14771 28.4948C3.52285 29.8699 5.38795 30.6425 7.3327 30.6425C9.27745 30.6425 11.1426 29.8699 12.5177 28.4948L16.5877 24.4248C15.1532 24.1678 13.7897 23.6088 12.5877 22.7848L9.7077 25.6648C9.07331 26.2706 8.22988 26.6086 7.35271 26.6086C6.47553 26.6086 5.6321 26.2706 4.99771 25.6648C4.68839 25.3555 4.44301 24.9884 4.2756 24.5843C4.1082 24.1802 4.02203 23.7472 4.02203 23.3098C4.02203 22.8724 4.1082 22.4393 4.2756 22.0352C4.44301 21.6311 4.68839 21.264 4.99771 20.9548L8.77771 17.1748L11.8977 14.0548C12.2105 13.7434 12.5807 13.4955 12.9877 13.3248C13.1963 13.2464 13.4101 13.1829 13.6277 13.1348V13.1348C14.1649 13.0315 14.7191 13.0614 15.2421 13.2218C15.765 13.3822 16.2408 13.6682 16.6277 14.0548C16.8134 14.2407 17.034 14.3882 17.2768 14.4889C17.5196 14.5895 17.7799 14.6414 18.0427 14.6414C18.3055 14.6414 18.5658 14.5895 18.8086 14.4889C19.0514 14.3882 19.272 14.2407 19.4577 14.0548C19.7226 13.7762 19.9059 13.4303 19.9877 13.0548C20.0225 12.8563 20.0225 12.6533 19.9877 12.4548C19.9841 12.4199 19.9739 12.3859 19.9577 12.3548V12.3548Z" fill="white"/>
<path d="M30.4477 2.14795C29.7678 1.46703 28.9604 0.926827 28.0715 0.558258C27.1827 0.189689 26.2299 0 25.2677 0C24.3055 0 23.3527 0.189689 22.4638 0.558258C21.575 0.926827 20.7675 1.46703 20.0877 2.14795L16.0077 6.21796C17.4406 6.47451 18.8035 7.02989 20.0077 7.84796L22.8777 4.97797C23.5121 4.37218 24.3555 4.03415 25.2327 4.03415C26.1099 4.03415 26.9533 4.37218 27.5877 4.97797C27.903 5.2829 28.154 5.64799 28.3258 6.05164C28.4976 6.45528 28.5866 6.88927 28.5877 7.32794C28.5857 7.76796 28.4963 8.20319 28.3246 8.60834C28.1529 9.01349 27.9024 9.38048 27.5877 9.68796L26.3277 10.948L20.6877 16.588C20.051 17.1892 19.2084 17.5242 18.3327 17.5242C17.4569 17.5242 16.6144 17.1892 15.9777 16.588C15.5951 16.2603 15.1029 16.0891 14.5996 16.1085C14.0962 16.128 13.6187 16.3367 13.2625 16.6928C12.9063 17.049 12.6977 17.5265 12.6782 18.0298C12.6588 18.5332 12.83 19.0254 13.1577 19.408C13.8375 20.0889 14.645 20.6291 15.5338 20.9976C16.4227 21.3662 17.3754 21.5559 18.3377 21.5559C19.2999 21.5559 20.2527 21.3662 21.1415 20.9976C22.0304 20.6291 22.8378 20.0889 23.5177 19.408L29.1577 13.778L30.4177 12.508C31.0986 11.8281 31.6388 11.0206 32.0073 10.1318C32.3759 9.24297 32.5656 8.29017 32.5656 7.32794C32.5656 6.36572 32.3759 5.41295 32.0073 4.52411C31.6388 3.63527 31.0986 2.82782 30.4177 2.14795H30.4477Z" fill="white"/>
</svg>
