<svg width="173" height="38" viewBox="0 0 173 38" fill="none" xmlns="http://www.w3.org/2000/svg">
<path d="M40.168 32.64C44.08 32.64 45.544 30.096 45.544 27.072V10.464H42.208V27.072C42.208 28.392 41.632 29.496 40.168 29.496C40.024 29.496 38.776 29.472 38.128 29.232L37.84 32.28C38.656 32.52 39.712 32.64 40.168 32.64ZM63.3623 27L57.2183 10.464H53.6183L47.4503 27H51.0023L52.3223 23.04H58.5143L59.8583 27H63.3623ZM55.4183 13.872L57.5303 20.136H53.3063L55.4183 13.872ZM72.3768 27.288C75.1848 27.288 77.6328 25.944 79.1208 23.856L76.5768 22.008C75.6407 23.328 74.2488 24.144 72.4728 24.144C69.4728 24.144 67.3128 21.672 67.3128 18.72C67.3128 15.768 69.4968 13.32 72.4968 13.32C74.2488 13.32 75.6407 14.136 76.5768 15.456L79.1208 13.608C77.6328 11.52 75.1848 10.176 72.3768 10.176C67.6968 10.176 63.9768 14.064 63.9768 18.72C63.9768 23.424 67.6968 27.288 72.3768 27.288ZM97.3945 18.744C97.3945 14.04 93.6505 10.176 88.9705 10.176C84.2665 10.176 80.5705 14.04 80.5705 18.744C80.5705 23.424 84.2665 27.288 88.9705 27.288C89.7865 27.288 90.5545 27.168 91.2985 26.952L93.0265 29.808L95.4025 28.368L93.7945 25.752C95.9785 24.192 97.3945 21.624 97.3945 18.744ZM88.9705 24.144C85.9945 24.144 83.9065 21.72 83.9065 18.744C83.9065 15.768 85.9945 13.32 88.9705 13.32C91.9225 13.32 94.0345 15.768 94.0345 18.744C94.0345 20.472 93.3145 22.032 92.1385 23.016L90.4585 20.28L88.1065 21.72L89.5705 24.12C89.3785 24.144 89.1625 24.144 88.9705 24.144ZM106.566 27.288C109.95 27.288 112.902 24.96 112.902 21.168V10.464H109.566V20.952C109.566 23.208 108.126 24.12 106.566 24.12C105.03 24.12 103.59 23.208 103.59 20.952V10.464H100.254V21.168C100.254 24.96 103.206 27.288 106.566 27.288ZM120.071 27V10.464H116.735V27H120.071ZM136.029 18.672L141.765 10.464H137.757L133.149 17.232V10.464H129.813V27H133.149V20.352L138.477 27H142.797L136.029 18.672ZM147.915 27V10.464H144.579V27H147.915ZM168.978 10.464H166.098L161.034 21.312L155.922 10.464H153.09L151.05 27H154.458L155.658 16.752L159.738 25.128H162.354L166.386 16.752L167.586 27H170.994L168.978 10.464Z" fill="#FF4E37"/>
<path d="M10.434 5.85633C11.2228 5.85633 11.8622 5.21692 11.8622 4.42817C11.8622 3.63941 11.2228 3 10.434 3C9.64527 3 9.00586 3.63941 9.00586 4.42817C9.00586 5.21692 9.64527 5.85633 10.434 5.85633Z" fill="#FF4E37"/>
<path d="M25.4203 11.3145C25.2316 11.0047 24.9441 10.7675 24.6042 10.6409C23.7965 10.3 22.2425 10.3112 18.8971 12.9048C16.2545 14.9715 13.9622 17.4507 12.1084 20.2468C12.3599 10.1854 11.9966 7.82374 11.5802 7.77344C11.2525 7.79706 10.9267 7.84187 10.6048 7.90759C10.1241 7.98584 10.0011 8.03056 9.90049 8.13118C9.63498 8.3911 9.71044 8.86343 9.73 8.96963C9.84179 9.77734 9.99271 14.5593 10.1688 21.2446C9.50129 21.4421 8.8477 21.6839 8.2124 21.9685C6.85969 22.5889 1.85692 24.8248 0.465092 29.6599C0.185607 30.6716 -0.714336 33.7683 1.13865 36.0405C1.6686 36.6769 2.33682 37.1839 3.09238 37.5229C3.84794 37.862 4.67091 38.0241 5.49861 37.9969C9.33593 37.846 11.1945 33.2652 11.2979 32.9913C11.7674 31.7867 11.8708 30.5906 12.0553 28.4944C12.1526 27.3718 12.19 26.2448 12.1671 25.1182C12.6302 26.3817 13.1841 27.61 13.8244 28.7935C15.0877 31.1132 15.9318 31.851 16.2588 32.1249C16.8792 32.6336 18.1788 33.704 19.1626 33.2792C20.0206 32.9103 20.2023 31.6023 20.2666 31.1132C20.7389 27.6811 17.8406 24.685 17.0776 23.8885C16.0843 22.8654 14.9389 22.0019 13.6819 21.3284C15.7179 20.7209 17.6798 19.8885 19.5315 18.8466C22.8322 16.9908 24.0815 15.4173 24.7299 14.3441C25.1547 13.6594 25.9792 12.2731 25.4203 11.3145ZM9.93123 25.8477C9.81944 27.3709 9.84738 27.6308 9.76913 28.3631C9.64615 29.481 9.4561 31.2613 8.49747 32.9494C8.14812 33.5615 6.52152 36.4122 4.15987 36.334C3.34229 36.2825 2.57183 35.9335 1.99387 35.353C0.87593 34.1931 1.08834 32.4938 1.19734 31.5967C1.53552 28.8018 3.32421 26.9433 4.24372 26.007C5.90752 24.3449 7.97864 23.1489 10.2498 22.5386C10.1688 23.296 10.0486 24.4419 9.94241 25.8533L9.93123 25.8477ZM18.4499 28.4162C18.8859 29.7549 19.2604 31.8985 18.7294 32.1333C18.0167 32.4463 15.7361 29.372 14.5036 26.2641C14.0119 25.0319 13.664 23.7471 13.4667 22.4352C14.7384 23.2205 17.3711 25.0847 18.4611 28.4218L18.4499 28.4162ZM19.5511 17.7846C18.0342 18.6703 16.3903 19.3178 14.6769 19.7046C16.4684 17.7734 19.3135 14.8164 21.636 13.0361C22.7344 12.1977 23.6819 11.6387 24.1039 11.9489C24.1773 12.0184 24.2353 12.1026 24.2738 12.1961C24.3123 12.2895 24.3306 12.3901 24.3275 12.4911C24.4281 13.9696 22.1782 16.2474 19.5511 17.7846Z" fill="#FF4E37"/>
</svg>
